<?xml version="1.0" encoding="UTF-8"?>
<svg xmlns="http://www.w3.org/2000/svg"
     viewBox="0 0 721.6875 772.0"
     width="721.6875" height="772.0">
  <style>
    @font-face {
      font-family: "TGL";
      src: local("TGL 0-17_std"), local("TGL 0-17"), local("TGL 0-17 alt");
      font-style: normal;
      font-weight: normal;
    }
    @font-face {
      font-family: "TGL";
      src: local("TGL 0-16_std"), local("TGL 0-16");
      font-style: italic;
      font-weight: normal;
    }
  </style>
  <defs>
    <filter id="dropShadow" x="-20%" y="-20%" width="140%" height="140%">
      <feGaussianBlur in="SourceAlpha" stdDeviation="3" result="blur"/>
      <feOffset in="blur" dx="1" dy="1" result="offsetBlur"/>
      <feFlood flood-color="#000000" flood-opacity="0.5" result="shadowColor"/>
      <feComposite in="shadowColor" in2="offsetBlur" operator="in" result="shadow"/>
      <feMerge>
        <feMergeNode in="shadow"/>
        <feMergeNode in="SourceGraphic"/>
      </feMerge>
    </filter>
  </defs>
  <g transform="translate(305.25, 10)">

    <!-- Block Outline -->
    <path d="M 3 0
            L 164.9375 0
            A 3 3 0 0 1 167.9375 3
            L 167.9375 23.0
            A 3 3 0 0 1 164.9375 26.0
            L 157.9375 26.0
            L 157.9375 66.0
            L 164.9375 66.0
            A 3 3 0 0 1 167.9375 69.0
            L 167.9375 749.0
            A 3 3 0 0 1 164.9375 752.0
            L 3 752.0
            A 3 3 0 0 1 0 749.0
            L 0 69.0
            A 3 3 0 0 1 3 66.0
            L 10 66.0
            L 10 26.0
            L 3 26.0
            A 3 3 0 0 1 0 23.0
            L 0 3
            A 3 3 0 0 1 3 0
            Z"
          fill="#FFFFFF" stroke="#A0A0A0" stroke-width="1.5"
          stroke-linejoin="round" filter="url(#dropShadow)"/>

    <!-- Event Ports -->

    <polygon points="161.4375,11.0 166.4375,16.0 161.4375,21.0" fill="#63B31F"/>
    <text x="158.4375" y="17.0" font-family="TGL, 'Times New Roman', Times, serif" font-size="14"
          fill="#000000" text-anchor="end" dominant-baseline="middle">CNF</text>

    <!-- Name Section -->
    <!-- FB Type Icon -->
    <path d="M 21.0 37.0
            L 37.0 37.0
            A 1 1 0 0 1 38.0 38.0
            L 38.0 41.5
            L 36.0 41.5
            L 36.0 44.5
            L 38.0 44.5
            L 38.0 54.0
            A 1 1 0 0 1 37.0 55.0
            L 21.0 55.0
            A 1 1 0 0 1 20.0 54.0
            L 20.0 44.5
            L 22.0 44.5
            L 22.0 41.5
            L 20.0 41.5
            L 20.0 38.0
            A 1 1 0 0 1 21.0 37.0
            Z"
          fill="#87CEEB" stroke="#1565C0" stroke-width="1"/>
    <text x="29.0" y="51.0"
          font-family="TGL, 'Times New Roman', Times, serif" font-size="12" font-weight="bold"
          fill="#000000" text-anchor="middle">Si</text>

    <!-- Block Name -->
    <text x="43.0" y="51.0"
          font-family="TGL, 'Times New Roman', Times, serif" font-size="14"
          fill="#000000" font-style="italic">AUDI_AUI_MUX_32</text>
    
    <text x="83.96875" y="66.0"
          font-family="TGL, 'Times New Roman', Times, serif" font-size="12"
          fill="#666666" text-anchor="middle">1.0</text>

    <!-- Data Ports -->

    <!-- Adapter Ports -->

    <path d="M 1.5 97.0
            L 6.5 97.0
            L 6.5 98.66666666666667
            L 9.0 98.66666666666667
            L 9.0 97.0
            L 11.5 97.0
            L 11.5 107.0
            L 9.0 107.0
            L 9.0 105.33333333333333
            L 6.5 105.33333333333333
            L 6.5 107.0
            L 1.5 107.0
            Z" fill="none" stroke="#845DAF" stroke-width="1"/>
    <text x="14.5" y="103.0" font-family="TGL, 'Times New Roman', Times, serif" font-size="14"
          fill="#000000" dominant-baseline="middle">K</text>

    <path d="M 1.5 117.0
            L 6.5 117.0
            L 6.5 118.66666666666667
            L 9.0 118.66666666666667
            L 9.0 117.0
            L 11.5 117.0
            L 11.5 127.0
            L 9.0 127.0
            L 9.0 125.33333333333333
            L 6.5 125.33333333333333
            L 6.5 127.0
            L 1.5 127.0
            Z" fill="none" stroke="#845DAF" stroke-width="1"/>
    <text x="14.5" y="123.0" font-family="TGL, 'Times New Roman', Times, serif" font-size="14"
          fill="#000000" dominant-baseline="middle">IN1</text>

    <path d="M 1.5 137.0
            L 6.5 137.0
            L 6.5 138.66666666666666
            L 9.0 138.66666666666666
            L 9.0 137.0
            L 11.5 137.0
            L 11.5 147.0
            L 9.0 147.0
            L 9.0 145.33333333333334
            L 6.5 145.33333333333334
            L 6.5 147.0
            L 1.5 147.0
            Z" fill="none" stroke="#845DAF" stroke-width="1"/>
    <text x="14.5" y="143.0" font-family="TGL, 'Times New Roman', Times, serif" font-size="14"
          fill="#000000" dominant-baseline="middle">IN2</text>

    <path d="M 1.5 157.0
            L 6.5 157.0
            L 6.5 158.66666666666666
            L 9.0 158.66666666666666
            L 9.0 157.0
            L 11.5 157.0
            L 11.5 167.0
            L 9.0 167.0
            L 9.0 165.33333333333334
            L 6.5 165.33333333333334
            L 6.5 167.0
            L 1.5 167.0
            Z" fill="none" stroke="#845DAF" stroke-width="1"/>
    <text x="14.5" y="163.0" font-family="TGL, 'Times New Roman', Times, serif" font-size="14"
          fill="#000000" dominant-baseline="middle">IN3</text>

    <path d="M 1.5 177.0
            L 6.5 177.0
            L 6.5 178.66666666666666
            L 9.0 178.66666666666666
            L 9.0 177.0
            L 11.5 177.0
            L 11.5 187.0
            L 9.0 187.0
            L 9.0 185.33333333333334
            L 6.5 185.33333333333334
            L 6.5 187.0
            L 1.5 187.0
            Z" fill="none" stroke="#845DAF" stroke-width="1"/>
    <text x="14.5" y="183.0" font-family="TGL, 'Times New Roman', Times, serif" font-size="14"
          fill="#000000" dominant-baseline="middle">IN4</text>

    <path d="M 1.5 197.0
            L 6.5 197.0
            L 6.5 198.66666666666666
            L 9.0 198.66666666666666
            L 9.0 197.0
            L 11.5 197.0
            L 11.5 207.0
            L 9.0 207.0
            L 9.0 205.33333333333334
            L 6.5 205.33333333333334
            L 6.5 207.0
            L 1.5 207.0
            Z" fill="none" stroke="#845DAF" stroke-width="1"/>
    <text x="14.5" y="203.0" font-family="TGL, 'Times New Roman', Times, serif" font-size="14"
          fill="#000000" dominant-baseline="middle">IN5</text>

    <path d="M 1.5 217.0
            L 6.5 217.0
            L 6.5 218.66666666666666
            L 9.0 218.66666666666666
            L 9.0 217.0
            L 11.5 217.0
            L 11.5 227.0
            L 9.0 227.0
            L 9.0 225.33333333333334
            L 6.5 225.33333333333334
            L 6.5 227.0
            L 1.5 227.0
            Z" fill="none" stroke="#845DAF" stroke-width="1"/>
    <text x="14.5" y="223.0" font-family="TGL, 'Times New Roman', Times, serif" font-size="14"
          fill="#000000" dominant-baseline="middle">IN6</text>

    <path d="M 1.5 237.0
            L 6.5 237.0
            L 6.5 238.66666666666666
            L 9.0 238.66666666666666
            L 9.0 237.0
            L 11.5 237.0
            L 11.5 247.0
            L 9.0 247.0
            L 9.0 245.33333333333334
            L 6.5 245.33333333333334
            L 6.5 247.0
            L 1.5 247.0
            Z" fill="none" stroke="#845DAF" stroke-width="1"/>
    <text x="14.5" y="243.0" font-family="TGL, 'Times New Roman', Times, serif" font-size="14"
          fill="#000000" dominant-baseline="middle">IN7</text>

    <path d="M 1.5 257.0
            L 6.5 257.0
            L 6.5 258.6666666666667
            L 9.0 258.6666666666667
            L 9.0 257.0
            L 11.5 257.0
            L 11.5 267.0
            L 9.0 267.0
            L 9.0 265.3333333333333
            L 6.5 265.3333333333333
            L 6.5 267.0
            L 1.5 267.0
            Z" fill="none" stroke="#845DAF" stroke-width="1"/>
    <text x="14.5" y="263.0" font-family="TGL, 'Times New Roman', Times, serif" font-size="14"
          fill="#000000" dominant-baseline="middle">IN8</text>

    <path d="M 1.5 277.0
            L 6.5 277.0
            L 6.5 278.6666666666667
            L 9.0 278.6666666666667
            L 9.0 277.0
            L 11.5 277.0
            L 11.5 287.0
            L 9.0 287.0
            L 9.0 285.3333333333333
            L 6.5 285.3333333333333
            L 6.5 287.0
            L 1.5 287.0
            Z" fill="none" stroke="#845DAF" stroke-width="1"/>
    <text x="14.5" y="283.0" font-family="TGL, 'Times New Roman', Times, serif" font-size="14"
          fill="#000000" dominant-baseline="middle">IN9</text>

    <path d="M 1.5 297.0
            L 6.5 297.0
            L 6.5 298.6666666666667
            L 9.0 298.6666666666667
            L 9.0 297.0
            L 11.5 297.0
            L 11.5 307.0
            L 9.0 307.0
            L 9.0 305.3333333333333
            L 6.5 305.3333333333333
            L 6.5 307.0
            L 1.5 307.0
            Z" fill="none" stroke="#845DAF" stroke-width="1"/>
    <text x="14.5" y="303.0" font-family="TGL, 'Times New Roman', Times, serif" font-size="14"
          fill="#000000" dominant-baseline="middle">IN10</text>

    <path d="M 1.5 317.0
            L 6.5 317.0
            L 6.5 318.6666666666667
            L 9.0 318.6666666666667
            L 9.0 317.0
            L 11.5 317.0
            L 11.5 327.0
            L 9.0 327.0
            L 9.0 325.3333333333333
            L 6.5 325.3333333333333
            L 6.5 327.0
            L 1.5 327.0
            Z" fill="none" stroke="#845DAF" stroke-width="1"/>
    <text x="14.5" y="323.0" font-family="TGL, 'Times New Roman', Times, serif" font-size="14"
          fill="#000000" dominant-baseline="middle">IN11</text>

    <path d="M 1.5 337.0
            L 6.5 337.0
            L 6.5 338.6666666666667
            L 9.0 338.6666666666667
            L 9.0 337.0
            L 11.5 337.0
            L 11.5 347.0
            L 9.0 347.0
            L 9.0 345.3333333333333
            L 6.5 345.3333333333333
            L 6.5 347.0
            L 1.5 347.0
            Z" fill="none" stroke="#845DAF" stroke-width="1"/>
    <text x="14.5" y="343.0" font-family="TGL, 'Times New Roman', Times, serif" font-size="14"
          fill="#000000" dominant-baseline="middle">IN12</text>

    <path d="M 1.5 357.0
            L 6.5 357.0
            L 6.5 358.6666666666667
            L 9.0 358.6666666666667
            L 9.0 357.0
            L 11.5 357.0
            L 11.5 367.0
            L 9.0 367.0
            L 9.0 365.3333333333333
            L 6.5 365.3333333333333
            L 6.5 367.0
            L 1.5 367.0
            Z" fill="none" stroke="#845DAF" stroke-width="1"/>
    <text x="14.5" y="363.0" font-family="TGL, 'Times New Roman', Times, serif" font-size="14"
          fill="#000000" dominant-baseline="middle">IN13</text>

    <path d="M 1.5 377.0
            L 6.5 377.0
            L 6.5 378.6666666666667
            L 9.0 378.6666666666667
            L 9.0 377.0
            L 11.5 377.0
            L 11.5 387.0
            L 9.0 387.0
            L 9.0 385.3333333333333
            L 6.5 385.3333333333333
            L 6.5 387.0
            L 1.5 387.0
            Z" fill="none" stroke="#845DAF" stroke-width="1"/>
    <text x="14.5" y="383.0" font-family="TGL, 'Times New Roman', Times, serif" font-size="14"
          fill="#000000" dominant-baseline="middle">IN14</text>

    <path d="M 1.5 397.0
            L 6.5 397.0
            L 6.5 398.6666666666667
            L 9.0 398.6666666666667
            L 9.0 397.0
            L 11.5 397.0
            L 11.5 407.0
            L 9.0 407.0
            L 9.0 405.3333333333333
            L 6.5 405.3333333333333
            L 6.5 407.0
            L 1.5 407.0
            Z" fill="none" stroke="#845DAF" stroke-width="1"/>
    <text x="14.5" y="403.0" font-family="TGL, 'Times New Roman', Times, serif" font-size="14"
          fill="#000000" dominant-baseline="middle">IN15</text>

    <path d="M 1.5 417.0
            L 6.5 417.0
            L 6.5 418.6666666666667
            L 9.0 418.6666666666667
            L 9.0 417.0
            L 11.5 417.0
            L 11.5 427.0
            L 9.0 427.0
            L 9.0 425.3333333333333
            L 6.5 425.3333333333333
            L 6.5 427.0
            L 1.5 427.0
            Z" fill="none" stroke="#845DAF" stroke-width="1"/>
    <text x="14.5" y="423.0" font-family="TGL, 'Times New Roman', Times, serif" font-size="14"
          fill="#000000" dominant-baseline="middle">IN16</text>

    <path d="M 1.5 437.0
            L 6.5 437.0
            L 6.5 438.6666666666667
            L 9.0 438.6666666666667
            L 9.0 437.0
            L 11.5 437.0
            L 11.5 447.0
            L 9.0 447.0
            L 9.0 445.3333333333333
            L 6.5 445.3333333333333
            L 6.5 447.0
            L 1.5 447.0
            Z" fill="none" stroke="#845DAF" stroke-width="1"/>
    <text x="14.5" y="443.0" font-family="TGL, 'Times New Roman', Times, serif" font-size="14"
          fill="#000000" dominant-baseline="middle">IN17</text>

    <path d="M 1.5 457.0
            L 6.5 457.0
            L 6.5 458.6666666666667
            L 9.0 458.6666666666667
            L 9.0 457.0
            L 11.5 457.0
            L 11.5 467.0
            L 9.0 467.0
            L 9.0 465.3333333333333
            L 6.5 465.3333333333333
            L 6.5 467.0
            L 1.5 467.0
            Z" fill="none" stroke="#845DAF" stroke-width="1"/>
    <text x="14.5" y="463.0" font-family="TGL, 'Times New Roman', Times, serif" font-size="14"
          fill="#000000" dominant-baseline="middle">IN18</text>

    <path d="M 1.5 477.0
            L 6.5 477.0
            L 6.5 478.6666666666667
            L 9.0 478.6666666666667
            L 9.0 477.0
            L 11.5 477.0
            L 11.5 487.0
            L 9.0 487.0
            L 9.0 485.3333333333333
            L 6.5 485.3333333333333
            L 6.5 487.0
            L 1.5 487.0
            Z" fill="none" stroke="#845DAF" stroke-width="1"/>
    <text x="14.5" y="483.0" font-family="TGL, 'Times New Roman', Times, serif" font-size="14"
          fill="#000000" dominant-baseline="middle">IN19</text>

    <path d="M 1.5 497.0
            L 6.5 497.0
            L 6.5 498.6666666666667
            L 9.0 498.6666666666667
            L 9.0 497.0
            L 11.5 497.0
            L 11.5 507.0
            L 9.0 507.0
            L 9.0 505.3333333333333
            L 6.5 505.3333333333333
            L 6.5 507.0
            L 1.5 507.0
            Z" fill="none" stroke="#845DAF" stroke-width="1"/>
    <text x="14.5" y="503.0" font-family="TGL, 'Times New Roman', Times, serif" font-size="14"
          fill="#000000" dominant-baseline="middle">IN20</text>

    <path d="M 1.5 517.0
            L 6.5 517.0
            L 6.5 518.6666666666666
            L 9.0 518.6666666666666
            L 9.0 517.0
            L 11.5 517.0
            L 11.5 527.0
            L 9.0 527.0
            L 9.0 525.3333333333334
            L 6.5 525.3333333333334
            L 6.5 527.0
            L 1.5 527.0
            Z" fill="none" stroke="#845DAF" stroke-width="1"/>
    <text x="14.5" y="523.0" font-family="TGL, 'Times New Roman', Times, serif" font-size="14"
          fill="#000000" dominant-baseline="middle">IN21</text>

    <path d="M 1.5 537.0
            L 6.5 537.0
            L 6.5 538.6666666666666
            L 9.0 538.6666666666666
            L 9.0 537.0
            L 11.5 537.0
            L 11.5 547.0
            L 9.0 547.0
            L 9.0 545.3333333333334
            L 6.5 545.3333333333334
            L 6.5 547.0
            L 1.5 547.0
            Z" fill="none" stroke="#845DAF" stroke-width="1"/>
    <text x="14.5" y="543.0" font-family="TGL, 'Times New Roman', Times, serif" font-size="14"
          fill="#000000" dominant-baseline="middle">IN22</text>

    <path d="M 1.5 557.0
            L 6.5 557.0
            L 6.5 558.6666666666666
            L 9.0 558.6666666666666
            L 9.0 557.0
            L 11.5 557.0
            L 11.5 567.0
            L 9.0 567.0
            L 9.0 565.3333333333334
            L 6.5 565.3333333333334
            L 6.5 567.0
            L 1.5 567.0
            Z" fill="none" stroke="#845DAF" stroke-width="1"/>
    <text x="14.5" y="563.0" font-family="TGL, 'Times New Roman', Times, serif" font-size="14"
          fill="#000000" dominant-baseline="middle">IN23</text>

    <path d="M 1.5 577.0
            L 6.5 577.0
            L 6.5 578.6666666666666
            L 9.0 578.6666666666666
            L 9.0 577.0
            L 11.5 577.0
            L 11.5 587.0
            L 9.0 587.0
            L 9.0 585.3333333333334
            L 6.5 585.3333333333334
            L 6.5 587.0
            L 1.5 587.0
            Z" fill="none" stroke="#845DAF" stroke-width="1"/>
    <text x="14.5" y="583.0" font-family="TGL, 'Times New Roman', Times, serif" font-size="14"
          fill="#000000" dominant-baseline="middle">IN24</text>

    <path d="M 1.5 597.0
            L 6.5 597.0
            L 6.5 598.6666666666666
            L 9.0 598.6666666666666
            L 9.0 597.0
            L 11.5 597.0
            L 11.5 607.0
            L 9.0 607.0
            L 9.0 605.3333333333334
            L 6.5 605.3333333333334
            L 6.5 607.0
            L 1.5 607.0
            Z" fill="none" stroke="#845DAF" stroke-width="1"/>
    <text x="14.5" y="603.0" font-family="TGL, 'Times New Roman', Times, serif" font-size="14"
          fill="#000000" dominant-baseline="middle">IN25</text>

    <path d="M 1.5 617.0
            L 6.5 617.0
            L 6.5 618.6666666666666
            L 9.0 618.6666666666666
            L 9.0 617.0
            L 11.5 617.0
            L 11.5 627.0
            L 9.0 627.0
            L 9.0 625.3333333333334
            L 6.5 625.3333333333334
            L 6.5 627.0
            L 1.5 627.0
            Z" fill="none" stroke="#845DAF" stroke-width="1"/>
    <text x="14.5" y="623.0" font-family="TGL, 'Times New Roman', Times, serif" font-size="14"
          fill="#000000" dominant-baseline="middle">IN26</text>

    <path d="M 1.5 637.0
            L 6.5 637.0
            L 6.5 638.6666666666666
            L 9.0 638.6666666666666
            L 9.0 637.0
            L 11.5 637.0
            L 11.5 647.0
            L 9.0 647.0
            L 9.0 645.3333333333334
            L 6.5 645.3333333333334
            L 6.5 647.0
            L 1.5 647.0
            Z" fill="none" stroke="#845DAF" stroke-width="1"/>
    <text x="14.5" y="643.0" font-family="TGL, 'Times New Roman', Times, serif" font-size="14"
          fill="#000000" dominant-baseline="middle">IN27</text>

    <path d="M 1.5 657.0
            L 6.5 657.0
            L 6.5 658.6666666666666
            L 9.0 658.6666666666666
            L 9.0 657.0
            L 11.5 657.0
            L 11.5 667.0
            L 9.0 667.0
            L 9.0 665.3333333333334
            L 6.5 665.3333333333334
            L 6.5 667.0
            L 1.5 667.0
            Z" fill="none" stroke="#845DAF" stroke-width="1"/>
    <text x="14.5" y="663.0" font-family="TGL, 'Times New Roman', Times, serif" font-size="14"
          fill="#000000" dominant-baseline="middle">IN28</text>

    <path d="M 1.5 677.0
            L 6.5 677.0
            L 6.5 678.6666666666666
            L 9.0 678.6666666666666
            L 9.0 677.0
            L 11.5 677.0
            L 11.5 687.0
            L 9.0 687.0
            L 9.0 685.3333333333334
            L 6.5 685.3333333333334
            L 6.5 687.0
            L 1.5 687.0
            Z" fill="none" stroke="#845DAF" stroke-width="1"/>
    <text x="14.5" y="683.0" font-family="TGL, 'Times New Roman', Times, serif" font-size="14"
          fill="#000000" dominant-baseline="middle">IN29</text>

    <path d="M 1.5 697.0
            L 6.5 697.0
            L 6.5 698.6666666666666
            L 9.0 698.6666666666666
            L 9.0 697.0
            L 11.5 697.0
            L 11.5 707.0
            L 9.0 707.0
            L 9.0 705.3333333333334
            L 6.5 705.3333333333334
            L 6.5 707.0
            L 1.5 707.0
            Z" fill="none" stroke="#845DAF" stroke-width="1"/>
    <text x="14.5" y="703.0" font-family="TGL, 'Times New Roman', Times, serif" font-size="14"
          fill="#000000" dominant-baseline="middle">IN30</text>

    <path d="M 1.5 717.0
            L 6.5 717.0
            L 6.5 718.6666666666666
            L 9.0 718.6666666666666
            L 9.0 717.0
            L 11.5 717.0
            L 11.5 727.0
            L 9.0 727.0
            L 9.0 725.3333333333334
            L 6.5 725.3333333333334
            L 6.5 727.0
            L 1.5 727.0
            Z" fill="none" stroke="#845DAF" stroke-width="1"/>
    <text x="14.5" y="723.0" font-family="TGL, 'Times New Roman', Times, serif" font-size="14"
          fill="#000000" dominant-baseline="middle">IN31</text>

    <path d="M 1.5 737.0
            L 6.5 737.0
            L 6.5 738.6666666666666
            L 9.0 738.6666666666666
            L 9.0 737.0
            L 11.5 737.0
            L 11.5 747.0
            L 9.0 747.0
            L 9.0 745.3333333333334
            L 6.5 745.3333333333334
            L 6.5 747.0
            L 1.5 747.0
            Z" fill="none" stroke="#845DAF" stroke-width="1"/>
    <text x="14.5" y="743.0" font-family="TGL, 'Times New Roman', Times, serif" font-size="14"
          fill="#000000" dominant-baseline="middle">IN32</text>

    <path d="M 156.4375 97.0
            L 158.9375 97.0
            L 158.9375 98.66666666666667
            L 161.4375 98.66666666666667
            L 161.4375 97.0
            L 166.4375 97.0
            L 166.4375 107.0
            L 161.4375 107.0
            L 161.4375 105.33333333333333
            L 158.9375 105.33333333333333
            L 158.9375 107.0
            L 156.4375 107.0
            Z" fill="#845DAF"/>
    <text x="153.4375" y="103.0" font-family="TGL, 'Times New Roman', Times, serif" font-size="14"
          fill="#000000" text-anchor="end" dominant-baseline="middle">OUT</text>

    <!-- Event-Data Association Connectors and Lines -->

    <!-- Horizontal Connection Lines -->

    <!-- External Labels -->

    <text x="192.9375" y="17.0" font-family="TGL, 'Times New Roman', Times, serif" font-size="14"
          fill="#000000" dominant-baseline="middle"><tspan font-family="TGL, 'Times New Roman', Times, serif" font-style="italic" dominant-baseline="middle">Event</tspan> – Confirmation of Set Index K</text>

    <text x="-25" y="103.0" font-family="TGL, 'Times New Roman', Times, serif" font-size="14"
          fill="#000000" text-anchor="end" dominant-baseline="middle">index – <tspan font-family="TGL, 'Times New Roman', Times, serif" font-style="italic" dominant-baseline="middle">AUI</tspan></text>

    <text x="-25" y="123.0" font-family="TGL, 'Times New Roman', Times, serif" font-size="14"
          fill="#000000" text-anchor="end" dominant-baseline="middle">Input value 1 (selected when K = 0) – <tspan font-family="TGL, 'Times New Roman', Times, serif" font-style="italic" dominant-baseline="middle">AUDI</tspan></text>

    <text x="-25" y="143.0" font-family="TGL, 'Times New Roman', Times, serif" font-size="14"
          fill="#000000" text-anchor="end" dominant-baseline="middle">Input value 2 (selected when K = 1) – <tspan font-family="TGL, 'Times New Roman', Times, serif" font-style="italic" dominant-baseline="middle">AUDI</tspan></text>

    <text x="-25" y="163.0" font-family="TGL, 'Times New Roman', Times, serif" font-size="14"
          fill="#000000" text-anchor="end" dominant-baseline="middle">Input value 3 (selected when K = 2) – <tspan font-family="TGL, 'Times New Roman', Times, serif" font-style="italic" dominant-baseline="middle">AUDI</tspan></text>

    <text x="-25" y="183.0" font-family="TGL, 'Times New Roman', Times, serif" font-size="14"
          fill="#000000" text-anchor="end" dominant-baseline="middle">Input value 4 (selected when K = 3) – <tspan font-family="TGL, 'Times New Roman', Times, serif" font-style="italic" dominant-baseline="middle">AUDI</tspan></text>

    <text x="-25" y="203.0" font-family="TGL, 'Times New Roman', Times, serif" font-size="14"
          fill="#000000" text-anchor="end" dominant-baseline="middle">Input value 5 (selected when K = 4) – <tspan font-family="TGL, 'Times New Roman', Times, serif" font-style="italic" dominant-baseline="middle">AUDI</tspan></text>

    <text x="-25" y="223.0" font-family="TGL, 'Times New Roman', Times, serif" font-size="14"
          fill="#000000" text-anchor="end" dominant-baseline="middle">Input value 6 (selected when K = 5) – <tspan font-family="TGL, 'Times New Roman', Times, serif" font-style="italic" dominant-baseline="middle">AUDI</tspan></text>

    <text x="-25" y="243.0" font-family="TGL, 'Times New Roman', Times, serif" font-size="14"
          fill="#000000" text-anchor="end" dominant-baseline="middle">Input value 7 (selected when K = 6) – <tspan font-family="TGL, 'Times New Roman', Times, serif" font-style="italic" dominant-baseline="middle">AUDI</tspan></text>

    <text x="-25" y="263.0" font-family="TGL, 'Times New Roman', Times, serif" font-size="14"
          fill="#000000" text-anchor="end" dominant-baseline="middle">Input value 8 (selected when K = 7) – <tspan font-family="TGL, 'Times New Roman', Times, serif" font-style="italic" dominant-baseline="middle">AUDI</tspan></text>

    <text x="-25" y="283.0" font-family="TGL, 'Times New Roman', Times, serif" font-size="14"
          fill="#000000" text-anchor="end" dominant-baseline="middle">Input value 9 (selected when K = 8) – <tspan font-family="TGL, 'Times New Roman', Times, serif" font-style="italic" dominant-baseline="middle">AUDI</tspan></text>

    <text x="-25" y="303.0" font-family="TGL, 'Times New Roman', Times, serif" font-size="14"
          fill="#000000" text-anchor="end" dominant-baseline="middle">Input value 10 (selected when K = 9) – <tspan font-family="TGL, 'Times New Roman', Times, serif" font-style="italic" dominant-baseline="middle">AUDI</tspan></text>

    <text x="-25" y="323.0" font-family="TGL, 'Times New Roman', Times, serif" font-size="14"
          fill="#000000" text-anchor="end" dominant-baseline="middle">Input value 11 (selected when K = 10) – <tspan font-family="TGL, 'Times New Roman', Times, serif" font-style="italic" dominant-baseline="middle">AUDI</tspan></text>

    <text x="-25" y="343.0" font-family="TGL, 'Times New Roman', Times, serif" font-size="14"
          fill="#000000" text-anchor="end" dominant-baseline="middle">Input value 12 (selected when K = 11) – <tspan font-family="TGL, 'Times New Roman', Times, serif" font-style="italic" dominant-baseline="middle">AUDI</tspan></text>

    <text x="-25" y="363.0" font-family="TGL, 'Times New Roman', Times, serif" font-size="14"
          fill="#000000" text-anchor="end" dominant-baseline="middle">Input value 13 (selected when K = 12) – <tspan font-family="TGL, 'Times New Roman', Times, serif" font-style="italic" dominant-baseline="middle">AUDI</tspan></text>

    <text x="-25" y="383.0" font-family="TGL, 'Times New Roman', Times, serif" font-size="14"
          fill="#000000" text-anchor="end" dominant-baseline="middle">Input value 14 (selected when K = 13) – <tspan font-family="TGL, 'Times New Roman', Times, serif" font-style="italic" dominant-baseline="middle">AUDI</tspan></text>

    <text x="-25" y="403.0" font-family="TGL, 'Times New Roman', Times, serif" font-size="14"
          fill="#000000" text-anchor="end" dominant-baseline="middle">Input value 15 (selected when K = 14) – <tspan font-family="TGL, 'Times New Roman', Times, serif" font-style="italic" dominant-baseline="middle">AUDI</tspan></text>

    <text x="-25" y="423.0" font-family="TGL, 'Times New Roman', Times, serif" font-size="14"
          fill="#000000" text-anchor="end" dominant-baseline="middle">Input value 16 (selected when K = 15) – <tspan font-family="TGL, 'Times New Roman', Times, serif" font-style="italic" dominant-baseline="middle">AUDI</tspan></text>

    <text x="-25" y="443.0" font-family="TGL, 'Times New Roman', Times, serif" font-size="14"
          fill="#000000" text-anchor="end" dominant-baseline="middle">Input value 17 (selected when K = 16) – <tspan font-family="TGL, 'Times New Roman', Times, serif" font-style="italic" dominant-baseline="middle">AUDI</tspan></text>

    <text x="-25" y="463.0" font-family="TGL, 'Times New Roman', Times, serif" font-size="14"
          fill="#000000" text-anchor="end" dominant-baseline="middle">Input value 18 (selected when K = 17) – <tspan font-family="TGL, 'Times New Roman', Times, serif" font-style="italic" dominant-baseline="middle">AUDI</tspan></text>

    <text x="-25" y="483.0" font-family="TGL, 'Times New Roman', Times, serif" font-size="14"
          fill="#000000" text-anchor="end" dominant-baseline="middle">Input value 19 (selected when K = 18) – <tspan font-family="TGL, 'Times New Roman', Times, serif" font-style="italic" dominant-baseline="middle">AUDI</tspan></text>

    <text x="-25" y="503.0" font-family="TGL, 'Times New Roman', Times, serif" font-size="14"
          fill="#000000" text-anchor="end" dominant-baseline="middle">Input value 20 (selected when K = 19) – <tspan font-family="TGL, 'Times New Roman', Times, serif" font-style="italic" dominant-baseline="middle">AUDI</tspan></text>

    <text x="-25" y="523.0" font-family="TGL, 'Times New Roman', Times, serif" font-size="14"
          fill="#000000" text-anchor="end" dominant-baseline="middle">Input value 21 (selected when K = 20) – <tspan font-family="TGL, 'Times New Roman', Times, serif" font-style="italic" dominant-baseline="middle">AUDI</tspan></text>

    <text x="-25" y="543.0" font-family="TGL, 'Times New Roman', Times, serif" font-size="14"
          fill="#000000" text-anchor="end" dominant-baseline="middle">Input value 22 (selected when K = 21) – <tspan font-family="TGL, 'Times New Roman', Times, serif" font-style="italic" dominant-baseline="middle">AUDI</tspan></text>

    <text x="-25" y="563.0" font-family="TGL, 'Times New Roman', Times, serif" font-size="14"
          fill="#000000" text-anchor="end" dominant-baseline="middle">Input value 23 (selected when K = 22) – <tspan font-family="TGL, 'Times New Roman', Times, serif" font-style="italic" dominant-baseline="middle">AUDI</tspan></text>

    <text x="-25" y="583.0" font-family="TGL, 'Times New Roman', Times, serif" font-size="14"
          fill="#000000" text-anchor="end" dominant-baseline="middle">Input value 24 (selected when K = 23) – <tspan font-family="TGL, 'Times New Roman', Times, serif" font-style="italic" dominant-baseline="middle">AUDI</tspan></text>

    <text x="-25" y="603.0" font-family="TGL, 'Times New Roman', Times, serif" font-size="14"
          fill="#000000" text-anchor="end" dominant-baseline="middle">Input value 25 (selected when K = 24) – <tspan font-family="TGL, 'Times New Roman', Times, serif" font-style="italic" dominant-baseline="middle">AUDI</tspan></text>

    <text x="-25" y="623.0" font-family="TGL, 'Times New Roman', Times, serif" font-size="14"
          fill="#000000" text-anchor="end" dominant-baseline="middle">Input value 26 (selected when K = 25) – <tspan font-family="TGL, 'Times New Roman', Times, serif" font-style="italic" dominant-baseline="middle">AUDI</tspan></text>

    <text x="-25" y="643.0" font-family="TGL, 'Times New Roman', Times, serif" font-size="14"
          fill="#000000" text-anchor="end" dominant-baseline="middle">Input value 27 (selected when K = 26) – <tspan font-family="TGL, 'Times New Roman', Times, serif" font-style="italic" dominant-baseline="middle">AUDI</tspan></text>

    <text x="-25" y="663.0" font-family="TGL, 'Times New Roman', Times, serif" font-size="14"
          fill="#000000" text-anchor="end" dominant-baseline="middle">Input value 28 (selected when K = 27) – <tspan font-family="TGL, 'Times New Roman', Times, serif" font-style="italic" dominant-baseline="middle">AUDI</tspan></text>

    <text x="-25" y="683.0" font-family="TGL, 'Times New Roman', Times, serif" font-size="14"
          fill="#000000" text-anchor="end" dominant-baseline="middle">Input value 29 (selected when K = 28) – <tspan font-family="TGL, 'Times New Roman', Times, serif" font-style="italic" dominant-baseline="middle">AUDI</tspan></text>

    <text x="-25" y="703.0" font-family="TGL, 'Times New Roman', Times, serif" font-size="14"
          fill="#000000" text-anchor="end" dominant-baseline="middle">Input value 30 (selected when K = 29) – <tspan font-family="TGL, 'Times New Roman', Times, serif" font-style="italic" dominant-baseline="middle">AUDI</tspan></text>

    <text x="-25" y="723.0" font-family="TGL, 'Times New Roman', Times, serif" font-size="14"
          fill="#000000" text-anchor="end" dominant-baseline="middle">Input value 31 (selected when K = 30) – <tspan font-family="TGL, 'Times New Roman', Times, serif" font-style="italic" dominant-baseline="middle">AUDI</tspan></text>

    <text x="-25" y="743.0" font-family="TGL, 'Times New Roman', Times, serif" font-size="14"
          fill="#000000" text-anchor="end" dominant-baseline="middle">Input value 32 (selected when K = 31) – <tspan font-family="TGL, 'Times New Roman', Times, serif" font-style="italic" dominant-baseline="middle">AUDI</tspan></text>

    <text x="192.9375" y="103.0" font-family="TGL, 'Times New Roman', Times, serif" font-size="14"
          fill="#000000" dominant-baseline="middle"><tspan font-family="TGL, 'Times New Roman', Times, serif" font-style="italic" dominant-baseline="middle">AUDI</tspan> – IN1 for K = 0..IN32 for K = 31</text>
  </g>
</svg>