<?xml version="1.0" encoding="UTF-8"?>
<svg xmlns="http://www.w3.org/2000/svg"
     viewBox="-42.6 -151.0 1201.6 588.0"
     width="1202" height="588">
  <style>
    @font-face {
      font-family: "TGL 0-17_std";
      src: local("TGL 0-17_std");
      font-style: normal;
      font-weight: normal;
    }
    @font-face {
      font-family: "TGL 0-17";
      src: local("TGL 0-17"), local("TGL 0-17 alt");
      font-style: normal;
      font-weight: normal;
    }
    @font-face {
      font-family: "TGL 0-16_std";
      src: local("TGL 0-16_std");
      font-style: normal;
      font-weight: normal;
    }
    @font-face {
      font-family: "TGL 0-16";
      src: local("TGL 0-16");
      font-style: normal;
      font-weight: normal;
    }
  </style>
  <defs>
    <filter id="dropShadow" x="-20%" y="-20%" width="140%" height="140%">
      <feGaussianBlur in="SourceAlpha" stdDeviation="3" result="blur"/>
      <feOffset in="blur" dx="1" dy="1" result="offsetBlur"/>
      <feFlood flood-color="#000000" flood-opacity="0.5" result="shadowColor"/>
      <feComposite in="shadowColor" in2="offsetBlur" operator="in" result="shadow"/>
      <feMerge>
        <feMergeNode in="shadow"/>
        <feMergeNode in="SourceGraphic"/>
      </feMerge>
    </filter>
  </defs>
  <rect x="-42.6" y="-151.0" width="1201.6" height="588.0" fill="white"/>
  <rect x="-35.6" y="-144.0" width="1187.6" height="574.0" fill="none" stroke="#A0A0A0" stroke-width="2"/>
  <rect x="-35.6" y="-144.0" width="1187.6" height="25.0" fill="white" stroke="none"/>
  <line x1="-35.6" y1="-119.5" x2="1152.0" y2="-119.5" stroke="#A0A0A0" stroke-width="1"/>
  <text x="-30.6" y="-127.3" font-family="'TGL 0-17_std', 'TGL 0-17', 'Times New Roman', Times, serif" font-size="12" font-weight="bold" fill="#333333">Funk_IXA auf DataPanel_MI_QXA (generisch), adapter-basiert</text>
  <g id="sidebars">
    <rect x="-35.6" y="-119.0" width="75.6" height="549.0" fill="#EEF5FF" stroke="none"/>
    <line x1="40.0" y1="-119.0" x2="40.0" y2="430.0" stroke="#A0A0A0" stroke-width="0.5"/>
  </g>
  <g id="connections">
    <polyline points="40.0,-84.0 313.8,-84.0 318.8,-79.0 318.8,195.5 323.8,200.5 554.3,200.5" fill="none" stroke="#3366FF" stroke-width="3" stroke-linejoin="round"/>
    <polyline points="40.0,-84.0 313.8,-84.0 318.8,-79.0 318.8,195.5 323.8,200.5 554.3,200.5" fill="none" stroke="#CCD8FF" stroke-width="1" stroke-linejoin="round"/>
    <polyline points="40.0,-67.0 607.0,-67.0 612.0,-62.0 612.0,165.5 617.0,170.5 869.3,170.5" fill="none" stroke="#18519E" stroke-width="1.5" stroke-linejoin="round"/>
    <polyline points="40.0,-50.0 607.0,-50.0 612.0,-45.0 612.0,182.5 617.0,187.5 869.3,187.5" fill="none" stroke="#3366FF" stroke-width="3" stroke-linejoin="round"/>
    <polyline points="40.0,-50.0 607.0,-50.0 612.0,-45.0 612.0,182.5 617.0,187.5 869.3,187.5" fill="none" stroke="#CCD8FF" stroke-width="1" stroke-linejoin="round"/>
    <polyline points="665.9,217.5 762.6,217.5 767.6,212.5 767.6,209.5 772.6,204.5 869.3,204.5" fill="none" stroke="#845DAF" stroke-width="3" stroke-linejoin="round"/>
    <polyline points="665.9,217.5 762.6,217.5 767.6,212.5 767.6,209.5 772.6,204.5 869.3,204.5" fill="none" stroke="#DED4EA" stroke-width="1" stroke-linejoin="round"/>
  </g>
  <g id="interface_ports">
    <polygon points="35.0,-89.0 40.0,-84.0 35.0,-79.0" fill="#3366FF"/>
    <text x="34.0" y="-79.8" font-family="'TGL 0-17_std', 'TGL 0-17', 'Times New Roman', Times, serif" font-size="12"
          fill="#000000" text-anchor="end">Input</text>
    <polygon points="35.0,-72.0 40.0,-67.0 35.0,-62.0" fill="#18519E"/>
    <text x="34.0" y="-62.8" font-family="'TGL 0-17_std', 'TGL 0-17', 'Times New Roman', Times, serif" font-size="12"
          fill="#000000" text-anchor="end">u8SAMember</text>
    <polygon points="35.0,-55.0 40.0,-50.0 35.0,-45.0" fill="#3366FF"/>
    <text x="34.0" y="-45.8" font-family="'TGL 0-17_std', 'TGL 0-17', 'Times New Roman', Times, serif" font-size="12"
          fill="#000000" text-anchor="end">Output</text>
  </g>
  <g id="instances">
    <g id="fb_QXA" transform="translate(869.3, 75.0)">
      <path d="M 3 0
            L 135.125 0
            A 3 3 0 0 1 138.125 3
            L 138.125 35
            A 3 3 0 0 1 135.125 38
            L 129.125 38
            L 129.125 52
            L 135.125 52
            A 3 3 0 0 1 138.125 55
            L 138.125 137
            A 3 3 0 0 1 135.125 140
            L 3 140
            A 3 3 0 0 1 0 137
            L 0 55
            A 3 3 0 0 1 3 52
            L 9 52
            L 9 38
            L 3 38
            A 3 3 0 0 1 0 35
            L 0 3
            A 3 3 0 0 1 3 0
            Z"
            fill="#FFFFFF" stroke="#A0A0A0" stroke-width="1.5"
            stroke-linejoin="round" filter="url(#dropShadow)"/>
      <!-- Name Section -->
      <path d="M 13.0 37.0
            L 27.0 37.0
            A 1 1 0 0 1 28.0 38.0
            L 28.0 41.0
            L 26.5 41.0
            L 26.5 43.666666666666664
            L 28.0 43.666666666666664
            L 28.0 52.0
            A 1 1 0 0 1 27.0 53.0
            L 13.0 53.0
            A 1 1 0 0 1 12.0 52.0
            L 12.0 43.666666666666664
            L 13.5 43.666666666666664
            L 13.5 41.0
            L 12.0 41.0
            L 12.0 38.0
            A 1 1 0 0 1 13.0 37.0
            Z"
            fill="#87CEEB" stroke="#1565C0" stroke-width="1"/>
      <text x="20.0" y="49.0"
            font-family="'TGL 0-17_std', 'TGL 0-17', 'Times New Roman', Times, serif" font-size="10" font-weight="bold"
            fill="#000000" text-anchor="middle">C</text>
      <text x="30.0" y="49.0"
            font-family="'TGL 0-16_std', 'TGL 0-16', 'Times New Roman', Times, serif" font-size="12"
            fill="#000000">DataPanel_MI_QX…</text>
      <polygon points="0,5.5 5,10.5 0,15.5" fill="#63B31F"/>
      <text x="6" y="14.7" font-family="'TGL 0-17_std', 'TGL 0-17', 'Times New Roman', Times, serif" font-size="12"
            fill="#000000">INIT</text>
      <polygon points="133.125,5.5 138.125,10.5 133.125,15.5" fill="#63B31F"/>
      <text x="132.125" y="14.7" font-family="'TGL 0-17_std', 'TGL 0-17', 'Times New Roman', Times, serif" font-size="12"
            fill="#000000" text-anchor="end">INITO</text>
      <polygon points="133.125,22.5 138.125,27.5 133.125,32.5" fill="#63B31F"/>
      <text x="132.125" y="31.7" font-family="'TGL 0-17_std', 'TGL 0-17', 'Times New Roman', Times, serif" font-size="12"
            fill="#000000" text-anchor="end">CNF</text>
      <polygon points="0,56.5 5,61.5 0,66.5" fill="#A3B08F"/>
      <text x="6" y="65.7" font-family="'TGL 0-17_std', 'TGL 0-17', 'Times New Roman', Times, serif" font-size="12"
            fill="#000000">QI</text>
      <polygon points="0,73.5 5,78.5 0,83.5" fill="#BD8663"/>
      <text x="6" y="82.7" font-family="'TGL 0-17_std', 'TGL 0-17', 'Times New Roman', Times, serif" font-size="12"
            fill="#000000">PARAMS</text>
      <polygon points="0,90.5 5,95.5 0,100.5" fill="#18519E"/>
      <text x="6" y="99.7" font-family="'TGL 0-17_std', 'TGL 0-17', 'Times New Roman', Times, serif" font-size="12"
            fill="#000000">u8SAMember</text>
      <polygon points="0,107.5 5,112.5 0,117.5" fill="#3366FF"/>
      <text x="6" y="116.7" font-family="'TGL 0-17_std', 'TGL 0-17', 'Times New Roman', Times, serif" font-size="12"
            fill="#000000">Output</text>
      <polygon points="133.125,56.5 138.125,61.5 133.125,66.5" fill="#A3B08F"/>
      <text x="132.125" y="65.7" font-family="'TGL 0-17_std', 'TGL 0-17', 'Times New Roman', Times, serif" font-size="12"
            fill="#000000" text-anchor="end">QO</text>
      <polygon points="133.125,73.5 138.125,78.5 133.125,83.5" fill="#BD8663"/>
      <text x="132.125" y="82.7" font-family="'TGL 0-17_std', 'TGL 0-17', 'Times New Roman', Times, serif" font-size="12"
            fill="#000000" text-anchor="end">STATUS</text>
      <text x="-3" y="65.7" font-family="'TGL 0-17_std', 'TGL 0-17', 'Times New Roman', Times, serif" font-size="12" fill="#000000" text-anchor="end">TRUE</text>
      <path d="M 0 124.5
            L 5.0 124.5
            L 5.0 126.16666666666667
            L 7.5 126.16666666666667
            L 7.5 124.5
            L 10 124.5
            L 10 134.5
            L 7.5 134.5
            L 7.5 132.83333333333334
            L 5.0 132.83333333333334
            L 5.0 134.5
            L 0 134.5
            Z" fill="none" stroke="#845DAF" stroke-width="1"/>
      <text x="13" y="133.7" font-family="'TGL 0-17_std', 'TGL 0-17', 'Times New Roman', Times, serif" font-size="12"
            fill="#000000">OUT</text>
      <!-- Instance Name -->
      <text x="69.0625" y="-5"
            font-family="'TGL 0-17_std', 'TGL 0-17', 'Times New Roman', Times, serif" font-size="12"
            fill="#000000" text-anchor="middle">QXA</text>
    </g>
    <g id="fb_IXA" transform="translate(554.3, 105.0)">
      <path d="M 3 0
            L 108.5625 0
            A 3 3 0 0 1 111.5625 3
            L 111.5625 35
            A 3 3 0 0 1 108.5625 38
            L 102.5625 38
            L 102.5625 52
            L 108.5625 52
            A 3 3 0 0 1 111.5625 55
            L 111.5625 120
            A 3 3 0 0 1 108.5625 123
            L 3 123
            A 3 3 0 0 1 0 120
            L 0 55
            A 3 3 0 0 1 3 52
            L 9 52
            L 9 38
            L 3 38
            A 3 3 0 0 1 0 35
            L 0 3
            A 3 3 0 0 1 3 0
            Z"
            fill="#FFFFFF" stroke="#A0A0A0" stroke-width="1.5"
            stroke-linejoin="round" filter="url(#dropShadow)"/>
      <!-- Name Section -->
      <path d="M 23.625 37.0
            L 37.625 37.0
            A 1 1 0 0 1 38.625 38.0
            L 38.625 41.0
            L 37.125 41.0
            L 37.125 43.666666666666664
            L 38.625 43.666666666666664
            L 38.625 52.0
            A 1 1 0 0 1 37.625 53.0
            L 23.625 53.0
            A 1 1 0 0 1 22.625 52.0
            L 22.625 43.666666666666664
            L 24.125 43.666666666666664
            L 24.125 41.0
            L 22.625 41.0
            L 22.625 38.0
            A 1 1 0 0 1 23.625 37.0
            Z"
            fill="#87CEEB" stroke="#1565C0" stroke-width="1"/>
      <text x="30.625" y="49.0"
            font-family="'TGL 0-17_std', 'TGL 0-17', 'Times New Roman', Times, serif" font-size="10" font-weight="bold"
            fill="#000000" text-anchor="middle">C</text>
      <text x="40.625" y="49.0"
            font-family="'TGL 0-16_std', 'TGL 0-16', 'Times New Roman', Times, serif" font-size="12"
            fill="#000000">Funk_IXA</text>
      <polygon points="0,5.5 5,10.5 0,15.5" fill="#63B31F"/>
      <text x="6" y="14.7" font-family="'TGL 0-17_std', 'TGL 0-17', 'Times New Roman', Times, serif" font-size="12"
            fill="#000000">INIT</text>
      <polygon points="0,22.5 5,27.5 0,32.5" fill="#63B31F"/>
      <text x="6" y="31.7" font-family="'TGL 0-17_std', 'TGL 0-17', 'Times New Roman', Times, serif" font-size="12"
            fill="#000000">REQ</text>
      <polygon points="106.5625,5.5 111.5625,10.5 106.5625,15.5" fill="#63B31F"/>
      <text x="105.5625" y="14.7" font-family="'TGL 0-17_std', 'TGL 0-17', 'Times New Roman', Times, serif" font-size="12"
            fill="#000000" text-anchor="end">INITO</text>
      <polygon points="0,56.5 5,61.5 0,66.5" fill="#A3B08F"/>
      <text x="6" y="65.7" font-family="'TGL 0-17_std', 'TGL 0-17', 'Times New Roman', Times, serif" font-size="12"
            fill="#000000">QI</text>
      <polygon points="0,73.5 5,78.5 0,83.5" fill="#BD8663"/>
      <text x="6" y="82.7" font-family="'TGL 0-17_std', 'TGL 0-17', 'Times New Roman', Times, serif" font-size="12"
            fill="#000000">PARAMS</text>
      <polygon points="0,90.5 5,95.5 0,100.5" fill="#3366FF"/>
      <text x="6" y="99.7" font-family="'TGL 0-17_std', 'TGL 0-17', 'Times New Roman', Times, serif" font-size="12"
            fill="#000000">Input</text>
      <polygon points="106.5625,56.5 111.5625,61.5 106.5625,66.5" fill="#A3B08F"/>
      <text x="105.5625" y="65.7" font-family="'TGL 0-17_std', 'TGL 0-17', 'Times New Roman', Times, serif" font-size="12"
            fill="#000000" text-anchor="end">QO</text>
      <polygon points="106.5625,73.5 111.5625,78.5 106.5625,83.5" fill="#BD8663"/>
      <text x="105.5625" y="82.7" font-family="'TGL 0-17_std', 'TGL 0-17', 'Times New Roman', Times, serif" font-size="12"
            fill="#000000" text-anchor="end">STATUS</text>
      <text x="-3" y="65.7" font-family="'TGL 0-17_std', 'TGL 0-17', 'Times New Roman', Times, serif" font-size="12" fill="#000000" text-anchor="end">TRUE</text>
      <path d="M 101.5625 107.5
            L 104.0625 107.5
            L 104.0625 109.16666666666667
            L 106.5625 109.16666666666667
            L 106.5625 107.5
            L 111.5625 107.5
            L 111.5625 117.5
            L 106.5625 117.5
            L 106.5625 115.83333333333333
            L 104.0625 115.83333333333333
            L 104.0625 117.5
            L 101.5625 117.5
            Z" fill="#845DAF"/>
      <text x="98.5625" y="116.7" font-family="'TGL 0-17_std', 'TGL 0-17', 'Times New Roman', Times, serif" font-size="12"
            fill="#000000" text-anchor="end">IN</text>
      <!-- Instance Name -->
      <text x="55.78125" y="-5"
            font-family="'TGL 0-17_std', 'TGL 0-17', 'Times New Roman', Times, serif" font-size="12"
            fill="#000000" text-anchor="middle">IXA</text>
    </g>
  </g>
</svg>