<?xml version="1.0" encoding="UTF-8"?>
<svg xmlns="http://www.w3.org/2000/svg"
     viewBox="-177.9 -151.0 1256.6 588.0"
     width="1257" height="588">
  <style>
    @font-face {
      font-family: "TGL 0-17_std";
      src: local("TGL 0-17_std");
      font-style: normal;
      font-weight: normal;
    }
    @font-face {
      font-family: "TGL 0-17";
      src: local("TGL 0-17"), local("TGL 0-17 alt");
      font-style: normal;
      font-weight: normal;
    }
    @font-face {
      font-family: "TGL 0-16_std";
      src: local("TGL 0-16_std");
      font-style: normal;
      font-weight: normal;
    }
    @font-face {
      font-family: "TGL 0-16";
      src: local("TGL 0-16");
      font-style: normal;
      font-weight: normal;
    }
  </style>
  <defs>
    <filter id="dropShadow" x="-20%" y="-20%" width="140%" height="140%">
      <feGaussianBlur in="SourceAlpha" stdDeviation="3" result="blur"/>
      <feOffset in="blur" dx="1" dy="1" result="offsetBlur"/>
      <feFlood flood-color="#000000" flood-opacity="0.5" result="shadowColor"/>
      <feComposite in="shadowColor" in2="offsetBlur" operator="in" result="shadow"/>
      <feMerge>
        <feMergeNode in="shadow"/>
        <feMergeNode in="SourceGraphic"/>
      </feMerge>
    </filter>
  </defs>
  <rect x="-177.9" y="-151.0" width="1256.6" height="588.0" fill="white"/>
  <rect x="-170.9" y="-144.0" width="1242.6" height="574.0" fill="none" stroke="#A0A0A0" stroke-width="2"/>
  <rect x="-170.9" y="-144.0" width="1242.6" height="25.0" fill="white" stroke="none"/>
  <line x1="-170.9" y1="-119.5" x2="1071.7" y2="-119.5" stroke="#A0A0A0" stroke-width="1"/>
  <text x="-165.9" y="-127.3" font-family="'TGL 0-17_std', 'TGL 0-17', 'Times New Roman', Times, serif" font-size="12" font-weight="bold" fill="#333333">OPC_UA Parameter lesen/Schreiben, remanent per INI, mit AX-Ausgang fuer den gespeicherten Wert (z.B. Richtung).</text>
  <g id="sidebars">
    <rect x="-170.9" y="-119.0" width="96.9" height="549.0" fill="#EEF5FF" stroke="none"/>
    <line x1="-74.0" y1="-119.0" x2="-74.0" y2="430.0" stroke="#A0A0A0" stroke-width="0.5"/>
    <rect x="1038.0" y="-119.0" width="33.7" height="549.0" fill="#EEF5FF" stroke="none"/>
    <line x1="1038.0" y1="-119.0" x2="1038.0" y2="430.0" stroke="#A0A0A0" stroke-width="0.5"/>
  </g>
  <g id="connections">
    <polyline points="267.0,115.5 379.0,115.5 384.0,110.5 384.0,90.5 389.0,85.5 511.0,85.5" fill="none" stroke="#63B31F" stroke-width="1.5" stroke-linejoin="round"/>
    <polyline points="669.2,85.5 738.2,85.5 743.2,90.5 743.2,95.5 748.2,100.5 826.0,100.5" fill="none" stroke="#63B31F" stroke-width="1.5" stroke-linejoin="round"/>
    <polyline points="-74.0,-84.0 35.0,-84.0 40.0,-79.0 40.0,148.5 45.0,153.5 511.0,153.5" fill="none" stroke="#BD8663" stroke-width="1.5" stroke-linejoin="round"/>
    <polyline points="-74.0,-67.0 35.0,-67.0 40.0,-62.0 40.0,165.5 45.0,170.5 511.0,170.5" fill="none" stroke="#BD8663" stroke-width="1.5" stroke-linejoin="round"/>
    <polyline points="-74.0,-50.0 35.0,-50.0 40.0,-45.0 40.0,182.5 45.0,187.5 511.0,187.5" fill="none" stroke="#A3B08F" stroke-width="1.5" stroke-linejoin="round"/>
    <polyline points="-74.0,-33.0 35.0,-33.0 40.0,-28.0 40.0,178.5 45.0,183.5 136.0,183.5" fill="none" stroke="#BD8663" stroke-width="1.5" stroke-linejoin="round"/>
    <polyline points="-74.0,-16.0 675.0,-16.0 680.0,-11.0 680.0,163.5 685.0,168.5 826.0,168.5" fill="none" stroke="#BD8663" stroke-width="1.5" stroke-linejoin="round"/>
    <polyline points="267.0,200.5 382.4,200.5 384.0,202.1 384.0,202.9 385.6,204.5 511.0,204.5" fill="none" stroke="#845DAF" stroke-width="3" stroke-linejoin="round"/>
    <polyline points="267.0,200.5 382.4,200.5 384.0,202.1 384.0,202.9 385.6,204.5 511.0,204.5" fill="none" stroke="#DED4EA" stroke-width="1" stroke-linejoin="round"/>
    <polyline points="669.2,204.5 738.2,204.5 743.2,199.5 743.2,190.5 748.2,185.5 826.0,185.5" fill="none" stroke="#845DAF" stroke-width="3" stroke-linejoin="round"/>
    <polyline points="669.2,204.5 738.2,204.5 743.2,199.5 743.2,190.5 748.2,185.5 826.0,185.5" fill="none" stroke="#DED4EA" stroke-width="1" stroke-linejoin="round"/>
    <polyline points="669.2,204.5 738.2,204.5 743.2,199.5 743.2,-79.0 748.2,-84.0 1038.0,-84.0" fill="none" stroke="#845DAF" stroke-width="3" stroke-linejoin="round"/>
    <polyline points="669.2,204.5 738.2,204.5 743.2,199.5 743.2,-79.0 748.2,-84.0 1038.0,-84.0" fill="none" stroke="#DED4EA" stroke-width="1" stroke-linejoin="round"/>
  </g>
  <g id="interface_ports">
    <polygon points="-79.0,-89.0 -74.0,-84.0 -79.0,-79.0" fill="#BD8663"/>
    <text x="-80.0" y="-79.8" font-family="'TGL 0-17_std', 'TGL 0-17', 'Times New Roman', Times, serif" font-size="12"
          fill="#000000" text-anchor="end">SECTION</text>
    <polygon points="-79.0,-72.0 -74.0,-67.0 -79.0,-62.0" fill="#BD8663"/>
    <text x="-80.0" y="-62.8" font-family="'TGL 0-17_std', 'TGL 0-17', 'Times New Roman', Times, serif" font-size="12"
          fill="#000000" text-anchor="end">KEY</text>
    <polygon points="-79.0,-55.0 -74.0,-50.0 -79.0,-45.0" fill="#A3B08F"/>
    <text x="-80.0" y="-45.8" font-family="'TGL 0-17_std', 'TGL 0-17', 'Times New Roman', Times, serif" font-size="12"
          fill="#000000" text-anchor="end">DEFAULT_VALUE</text>
    <polygon points="-79.0,-38.0 -74.0,-33.0 -79.0,-28.0" fill="#BD8663"/>
    <text x="-80.0" y="-28.8" font-family="'TGL 0-17_std', 'TGL 0-17', 'Times New Roman', Times, serif" font-size="12"
          fill="#000000" text-anchor="end">ID_READ</text>
    <polygon points="-79.0,-21.0 -74.0,-16.0 -79.0,-11.0" fill="#BD8663"/>
    <text x="-80.0" y="-11.8" font-family="'TGL 0-17_std', 'TGL 0-17', 'Times New Roman', Times, serif" font-size="12"
          fill="#000000" text-anchor="end">ID_WRITE</text>
    <path d="M 1038.0 -89.0 L 1043.0 -89.0 L 1043.0 -87.33333333333333 L 1045.5 -87.33333333333333 L 1045.5 -89.0 L 1048.0 -89.0 L 1048.0 -79.0 L 1045.5 -79.0 L 1045.5 -80.66666666666667 L 1043.0 -80.66666666666667 L 1043.0 -79.0 L 1038.0 -79.0 Z" fill="none" stroke="#845DAF" stroke-width="1"/>
    <text x="1051.0" y="-79.8" font-family="'TGL 0-17_std', 'TGL 0-17', 'Times New Roman', Times, serif" font-size="12"
          fill="#000000" text-anchor="start">OUT</text>
  </g>
  <g id="instances">
    <g id="fb_AX_SUBSCRIBE_1" transform="translate(136.0, 105.0)">
      <path d="M 3 0
            L 127.921875 0
            A 3 3 0 0 1 130.921875 3
            L 130.921875 35
            A 3 3 0 0 1 127.921875 38
            L 121.921875 38
            L 121.921875 52
            L 127.921875 52
            A 3 3 0 0 1 130.921875 55
            L 130.921875 103
            A 3 3 0 0 1 127.921875 106
            L 3 106
            A 3 3 0 0 1 0 103
            L 0 55
            A 3 3 0 0 1 3 52
            L 9 52
            L 9 38
            L 3 38
            A 3 3 0 0 1 0 35
            L 0 3
            A 3 3 0 0 1 3 0
            Z"
            fill="#FFFFFF" stroke="#A0A0A0" stroke-width="1.5"
            stroke-linejoin="round" filter="url(#dropShadow)"/>
      <!-- Name Section -->
      <path d="M 13.0 37.0
            L 27.0 37.0
            A 1 1 0 0 1 28.0 38.0
            L 28.0 41.0
            L 26.5 41.0
            L 26.5 43.666666666666664
            L 28.0 43.666666666666664
            L 28.0 52.0
            A 1 1 0 0 1 27.0 53.0
            L 13.0 53.0
            A 1 1 0 0 1 12.0 52.0
            L 12.0 43.666666666666664
            L 13.5 43.666666666666664
            L 13.5 41.0
            L 12.0 41.0
            L 12.0 38.0
            A 1 1 0 0 1 13.0 37.0
            Z"
            fill="#87CEEB" stroke="#1565C0" stroke-width="1"/>
      <text x="20.0" y="49.0"
            font-family="'TGL 0-17_std', 'TGL 0-17', 'Times New Roman', Times, serif" font-size="10" font-weight="bold"
            fill="#000000" text-anchor="middle">C</text>
      <text x="30.0" y="49.0"
            font-family="'TGL 0-16_std', 'TGL 0-16', 'Times New Roman', Times, serif" font-size="12"
            fill="#000000">AX_SUBSCRIBE_1</text>
      <polygon points="0,5.5 5,10.5 0,15.5" fill="#63B31F"/>
      <text x="6" y="14.7" font-family="'TGL 0-17_std', 'TGL 0-17', 'Times New Roman', Times, serif" font-size="12"
            fill="#000000">INIT</text>
      <polygon points="0,22.5 5,27.5 0,32.5" fill="#63B31F"/>
      <text x="6" y="31.7" font-family="'TGL 0-17_std', 'TGL 0-17', 'Times New Roman', Times, serif" font-size="12"
            fill="#000000">RSP</text>
      <polygon points="125.921875,5.5 130.921875,10.5 125.921875,15.5" fill="#63B31F"/>
      <text x="124.921875" y="14.7" font-family="'TGL 0-17_std', 'TGL 0-17', 'Times New Roman', Times, serif" font-size="12"
            fill="#000000" text-anchor="end">INITO</text>
      <polygon points="125.921875,22.5 130.921875,27.5 125.921875,32.5" fill="#63B31F"/>
      <text x="124.921875" y="31.7" font-family="'TGL 0-17_std', 'TGL 0-17', 'Times New Roman', Times, serif" font-size="12"
            fill="#000000" text-anchor="end">IND</text>
      <polygon points="0,56.5 5,61.5 0,66.5" fill="#A3B08F"/>
      <text x="6" y="65.7" font-family="'TGL 0-17_std', 'TGL 0-17', 'Times New Roman', Times, serif" font-size="12"
            fill="#000000">QI</text>
      <polygon points="0,73.5 5,78.5 0,83.5" fill="#BD8663"/>
      <text x="6" y="82.7" font-family="'TGL 0-17_std', 'TGL 0-17', 'Times New Roman', Times, serif" font-size="12"
            fill="#000000">ID</text>
      <polygon points="125.921875,56.5 130.921875,61.5 125.921875,66.5" fill="#A3B08F"/>
      <text x="124.921875" y="65.7" font-family="'TGL 0-17_std', 'TGL 0-17', 'Times New Roman', Times, serif" font-size="12"
            fill="#000000" text-anchor="end">QO</text>
      <polygon points="125.921875,73.5 130.921875,78.5 125.921875,83.5" fill="#BD8663"/>
      <text x="124.921875" y="82.7" font-family="'TGL 0-17_std', 'TGL 0-17', 'Times New Roman', Times, serif" font-size="12"
            fill="#000000" text-anchor="end">STATUS</text>
      <text x="-3" y="65.7" font-family="'TGL 0-17_std', 'TGL 0-17', 'Times New Roman', Times, serif" font-size="12" fill="#000000" text-anchor="end">TRUE</text>
      <path d="M 120.921875 90.5
            L 123.421875 90.5
            L 123.421875 92.16666666666667
            L 125.921875 92.16666666666667
            L 125.921875 90.5
            L 130.921875 90.5
            L 130.921875 100.5
            L 125.921875 100.5
            L 125.921875 98.83333333333333
            L 123.421875 98.83333333333333
            L 123.421875 100.5
            L 120.921875 100.5
            Z" fill="#845DAF"/>
      <text x="117.921875" y="99.7" font-family="'TGL 0-17_std', 'TGL 0-17', 'Times New Roman', Times, serif" font-size="12"
            fill="#000000" text-anchor="end">OUT</text>
      <!-- Instance Name -->
      <text x="65.4609375" y="-5"
            font-family="'TGL 0-17_std', 'TGL 0-17', 'Times New Roman', Times, serif" font-size="12"
            fill="#000000" text-anchor="middle">AX_SUBSCRIBE_1</text>
    </g>
    <g id="fb_AX_PUBLISH_1" transform="translate(826.0, 90.0)">
      <path d="M 3 0
            L 112.904296875 0
            A 3 3 0 0 1 115.904296875 3
            L 115.904296875 35
            A 3 3 0 0 1 112.904296875 38
            L 106.904296875 38
            L 106.904296875 52
            L 112.904296875 52
            A 3 3 0 0 1 115.904296875 55
            L 115.904296875 103
            A 3 3 0 0 1 112.904296875 106
            L 3 106
            A 3 3 0 0 1 0 103
            L 0 55
            A 3 3 0 0 1 3 52
            L 9 52
            L 9 38
            L 3 38
            A 3 3 0 0 1 0 35
            L 0 3
            A 3 3 0 0 1 3 0
            Z"
            fill="#FFFFFF" stroke="#A0A0A0" stroke-width="1.5"
            stroke-linejoin="round" filter="url(#dropShadow)"/>
      <!-- Name Section -->
      <path d="M 13.0 37.0
            L 27.0 37.0
            A 1 1 0 0 1 28.0 38.0
            L 28.0 41.0
            L 26.5 41.0
            L 26.5 43.666666666666664
            L 28.0 43.666666666666664
            L 28.0 52.0
            A 1 1 0 0 1 27.0 53.0
            L 13.0 53.0
            A 1 1 0 0 1 12.0 52.0
            L 12.0 43.666666666666664
            L 13.5 43.666666666666664
            L 13.5 41.0
            L 12.0 41.0
            L 12.0 38.0
            A 1 1 0 0 1 13.0 37.0
            Z"
            fill="#87CEEB" stroke="#1565C0" stroke-width="1"/>
      <text x="20.0" y="49.0"
            font-family="'TGL 0-17_std', 'TGL 0-17', 'Times New Roman', Times, serif" font-size="10" font-weight="bold"
            fill="#000000" text-anchor="middle">C</text>
      <text x="30.0" y="49.0"
            font-family="'TGL 0-16_std', 'TGL 0-16', 'Times New Roman', Times, serif" font-size="12"
            fill="#000000">AX_PUBLISH_1</text>
      <polygon points="0,5.5 5,10.5 0,15.5" fill="#63B31F"/>
      <text x="6" y="14.7" font-family="'TGL 0-17_std', 'TGL 0-17', 'Times New Roman', Times, serif" font-size="12"
            fill="#000000">INIT</text>
      <polygon points="110.904296875,5.5 115.904296875,10.5 110.904296875,15.5" fill="#63B31F"/>
      <text x="109.904296875" y="14.7" font-family="'TGL 0-17_std', 'TGL 0-17', 'Times New Roman', Times, serif" font-size="12"
            fill="#000000" text-anchor="end">INITO</text>
      <polygon points="110.904296875,22.5 115.904296875,27.5 110.904296875,32.5" fill="#63B31F"/>
      <text x="109.904296875" y="31.7" font-family="'TGL 0-17_std', 'TGL 0-17', 'Times New Roman', Times, serif" font-size="12"
            fill="#000000" text-anchor="end">CNF</text>
      <polygon points="0,56.5 5,61.5 0,66.5" fill="#A3B08F"/>
      <text x="6" y="65.7" font-family="'TGL 0-17_std', 'TGL 0-17', 'Times New Roman', Times, serif" font-size="12"
            fill="#000000">QI</text>
      <polygon points="0,73.5 5,78.5 0,83.5" fill="#BD8663"/>
      <text x="6" y="82.7" font-family="'TGL 0-17_std', 'TGL 0-17', 'Times New Roman', Times, serif" font-size="12"
            fill="#000000">ID</text>
      <polygon points="110.904296875,56.5 115.904296875,61.5 110.904296875,66.5" fill="#A3B08F"/>
      <text x="109.904296875" y="65.7" font-family="'TGL 0-17_std', 'TGL 0-17', 'Times New Roman', Times, serif" font-size="12"
            fill="#000000" text-anchor="end">QO</text>
      <polygon points="110.904296875,73.5 115.904296875,78.5 110.904296875,83.5" fill="#BD8663"/>
      <text x="109.904296875" y="82.7" font-family="'TGL 0-17_std', 'TGL 0-17', 'Times New Roman', Times, serif" font-size="12"
            fill="#000000" text-anchor="end">STATUS</text>
      <text x="-3" y="65.7" font-family="'TGL 0-17_std', 'TGL 0-17', 'Times New Roman', Times, serif" font-size="12" fill="#000000" text-anchor="end">TRUE</text>
      <path d="M 0 90.5
            L 5.0 90.5
            L 5.0 92.16666666666667
            L 7.5 92.16666666666667
            L 7.5 90.5
            L 10 90.5
            L 10 100.5
            L 7.5 100.5
            L 7.5 98.83333333333333
            L 5.0 98.83333333333333
            L 5.0 100.5
            L 0 100.5
            Z" fill="none" stroke="#845DAF" stroke-width="1"/>
      <text x="13" y="99.7" font-family="'TGL 0-17_std', 'TGL 0-17', 'Times New Roman', Times, serif" font-size="12"
            fill="#000000">IN</text>
      <!-- Instance Name -->
      <text x="57.9521484375" y="-5"
            font-family="'TGL 0-17_std', 'TGL 0-17', 'Times New Roman', Times, serif" font-size="12"
            fill="#000000" text-anchor="middle">AX_PUBLISH_1</text>
    </g>
    <g id="fb_INI_AX" transform="translate(511.0, 75.0)">
      <path d="M 3 0
            L 155.16015625 0
            A 3 3 0 0 1 158.16015625 3
            L 158.16015625 18
            A 3 3 0 0 1 155.16015625 21
            L 149.16015625 21
            L 149.16015625 35
            L 155.16015625 35
            A 3 3 0 0 1 158.16015625 38
            L 158.16015625 137
            A 3 3 0 0 1 155.16015625 140
            L 3 140
            A 3 3 0 0 1 0 137
            L 0 38
            A 3 3 0 0 1 3 35
            L 9 35
            L 9 21
            L 3 21
            A 3 3 0 0 1 0 18
            L 0 3
            A 3 3 0 0 1 3 0
            Z"
            fill="#FFFFFF" stroke="#A0A0A0" stroke-width="1.5"
            stroke-linejoin="round" filter="url(#dropShadow)"/>
      <!-- Name Section -->
      <path d="M 55.06640625 20.0
            L 69.06640625 20.0
            A 1 1 0 0 1 70.06640625 21.0
            L 70.06640625 24.0
            L 68.56640625 24.0
            L 68.56640625 26.666666666666668
            L 70.06640625 26.666666666666668
            L 70.06640625 35.0
            A 1 1 0 0 1 69.06640625 36.0
            L 55.06640625 36.0
            A 1 1 0 0 1 54.06640625 35.0
            L 54.06640625 26.666666666666668
            L 55.56640625 26.666666666666668
            L 55.56640625 24.0
            L 54.06640625 24.0
            L 54.06640625 21.0
            A 1 1 0 0 1 55.06640625 20.0
            Z"
            fill="#87CEEB" stroke="#1565C0" stroke-width="1"/>
      <text x="62.06640625" y="32.0"
            font-family="'TGL 0-17_std', 'TGL 0-17', 'Times New Roman', Times, serif" font-size="10" font-weight="bold"
            fill="#000000" text-anchor="middle">C</text>
      <text x="72.06640625" y="32.0"
            font-family="'TGL 0-16_std', 'TGL 0-16', 'Times New Roman', Times, serif" font-size="12"
            fill="#000000">INI_AX</text>
      <polygon points="0,5.5 5,10.5 0,15.5" fill="#63B31F"/>
      <text x="6" y="14.7" font-family="'TGL 0-17_std', 'TGL 0-17', 'Times New Roman', Times, serif" font-size="12"
            fill="#000000">INIT</text>
      <polygon points="153.16015625,5.5 158.16015625,10.5 153.16015625,15.5" fill="#63B31F"/>
      <text x="152.16015625" y="14.7" font-family="'TGL 0-17_std', 'TGL 0-17', 'Times New Roman', Times, serif" font-size="12"
            fill="#000000" text-anchor="end">INITO</text>
      <polygon points="0,39.5 5,44.5 0,49.5" fill="#A3B08F"/>
      <text x="6" y="48.7" font-family="'TGL 0-17_std', 'TGL 0-17', 'Times New Roman', Times, serif" font-size="12"
            fill="#000000">QI</text>
      <polygon points="0,56.5 5,61.5 0,66.5" fill="#A3B08F"/>
      <text x="6" y="65.7" font-family="'TGL 0-17_std', 'TGL 0-17', 'Times New Roman', Times, serif" font-size="12"
            fill="#000000">SETM</text>
      <polygon points="0,73.5 5,78.5 0,83.5" fill="#BD8663"/>
      <text x="6" y="82.7" font-family="'TGL 0-17_std', 'TGL 0-17', 'Times New Roman', Times, serif" font-size="12"
            fill="#000000">SECTION</text>
      <polygon points="0,90.5 5,95.5 0,100.5" fill="#BD8663"/>
      <text x="6" y="99.7" font-family="'TGL 0-17_std', 'TGL 0-17', 'Times New Roman', Times, serif" font-size="12"
            fill="#000000">KEY</text>
      <polygon points="0,107.5 5,112.5 0,117.5" fill="#A3B08F"/>
      <text x="6" y="116.7" font-family="'TGL 0-17_std', 'TGL 0-17', 'Times New Roman', Times, serif" font-size="12"
            fill="#000000">DEFAULT_VALU…</text>
      <polygon points="153.16015625,39.5 158.16015625,44.5 153.16015625,49.5" fill="#A3B08F"/>
      <text x="152.16015625" y="48.7" font-family="'TGL 0-17_std', 'TGL 0-17', 'Times New Roman', Times, serif" font-size="12"
            fill="#000000" text-anchor="end">QO</text>
      <polygon points="153.16015625,56.5 158.16015625,61.5 153.16015625,66.5" fill="#BD8663"/>
      <text x="152.16015625" y="65.7" font-family="'TGL 0-17_std', 'TGL 0-17', 'Times New Roman', Times, serif" font-size="12"
            fill="#000000" text-anchor="end">STATUS</text>
      <text x="-3" y="48.7" font-family="'TGL 0-17_std', 'TGL 0-17', 'Times New Roman', Times, serif" font-size="12" fill="#000000" text-anchor="end">TRUE</text>
      <text x="-3" y="65.7" font-family="'TGL 0-17_std', 'TGL 0-17', 'Times New Roman', Times, serif" font-size="12" fill="#000000" text-anchor="end">FALSE</text>
      <path d="M 0 124.5
            L 5.0 124.5
            L 5.0 126.16666666666667
            L 7.5 126.16666666666667
            L 7.5 124.5
            L 10 124.5
            L 10 134.5
            L 7.5 134.5
            L 7.5 132.83333333333334
            L 5.0 132.83333333333334
            L 5.0 134.5
            L 0 134.5
            Z" fill="none" stroke="#845DAF" stroke-width="1"/>
      <text x="13" y="133.7" font-family="'TGL 0-17_std', 'TGL 0-17', 'Times New Roman', Times, serif" font-size="12"
            fill="#000000">AX_IN</text>
      <path d="M 148.16015625 124.5
            L 150.66015625 124.5
            L 150.66015625 126.16666666666667
            L 153.16015625 126.16666666666667
            L 153.16015625 124.5
            L 158.16015625 124.5
            L 158.16015625 134.5
            L 153.16015625 134.5
            L 153.16015625 132.83333333333334
            L 150.66015625 132.83333333333334
            L 150.66015625 134.5
            L 148.16015625 134.5
            Z" fill="#845DAF"/>
      <text x="145.16015625" y="133.7" font-family="'TGL 0-17_std', 'TGL 0-17', 'Times New Roman', Times, serif" font-size="12"
            fill="#000000" text-anchor="end">AX_OUT</text>
      <!-- Instance Name -->
      <text x="79.080078125" y="-5"
            font-family="'TGL 0-17_std', 'TGL 0-17', 'Times New Roman', Times, serif" font-size="12"
            fill="#000000" text-anchor="middle">INI_AX</text>
    </g>
  </g>
</svg>