<?xml version="1.0" encoding="UTF-8"?>
<svg xmlns="http://www.w3.org/2000/svg"
     viewBox="-214.1 -151.0 1181.1 601.0"
     width="1181" height="601">
  <style>
    @font-face {
      font-family: "TGL 0-17_std";
      src: local("TGL 0-17_std");
      font-style: normal;
      font-weight: normal;
    }
    @font-face {
      font-family: "TGL 0-17";
      src: local("TGL 0-17"), local("TGL 0-17 alt");
      font-style: normal;
      font-weight: normal;
    }
    @font-face {
      font-family: "TGL 0-16_std";
      src: local("TGL 0-16_std");
      font-style: normal;
      font-weight: normal;
    }
    @font-face {
      font-family: "TGL 0-16";
      src: local("TGL 0-16");
      font-style: normal;
      font-weight: normal;
    }
  </style>
  <defs>
    <filter id="dropShadow" x="-20%" y="-20%" width="140%" height="140%">
      <feGaussianBlur in="SourceAlpha" stdDeviation="3" result="blur"/>
      <feOffset in="blur" dx="1" dy="1" result="offsetBlur"/>
      <feFlood flood-color="#000000" flood-opacity="0.5" result="shadowColor"/>
      <feComposite in="shadowColor" in2="offsetBlur" operator="in" result="shadow"/>
      <feMerge>
        <feMergeNode in="shadow"/>
        <feMergeNode in="SourceGraphic"/>
      </feMerge>
    </filter>
  </defs>
  <rect x="-214.1" y="-151.0" width="1181.1" height="601.0" fill="white"/>
  <rect x="-207.1" y="-144.0" width="1167.1" height="587.0" fill="none" stroke="#A0A0A0" stroke-width="2"/>
  <rect x="-207.1" y="-144.0" width="1167.1" height="25.0" fill="white" stroke="none"/>
  <line x1="-207.1" y1="-119.5" x2="960.0" y2="-119.5" stroke="#A0A0A0" stroke-width="1"/>
  <text x="-202.1" y="-127.3" font-family="'TGL 0-17_std', 'TGL 0-17', 'Times New Roman', Times, serif" font-size="12" font-weight="bold" fill="#333333">logiBUS DQ Kanal: OPC-UA Read/Write (generisch, ein Kanal, ohne VT-Button/Hintergrundfarbe - fuer Module ohne ISOBUS/VT-Anbindung)</text>
  <g id="sidebars">
    <rect x="-207.1" y="-119.0" width="55.1" height="562.0" fill="#EEF5FF" stroke="none"/>
    <line x1="-152.0" y1="-119.0" x2="-152.0" y2="443.0" stroke="#A0A0A0" stroke-width="0.5"/>
  </g>
  <g id="connections">
    <polyline points="-152.0,-84.0 280.0,-84.0 285.0,-79.0 285.0,165.5 290.0,170.5 677.1,170.5" fill="none" stroke="#3366FF" stroke-width="3" stroke-linejoin="round"/>
    <polyline points="-152.0,-84.0 280.0,-84.0 285.0,-79.0 285.0,165.5 290.0,170.5 677.1,170.5" fill="none" stroke="#CCD8FF" stroke-width="1" stroke-linejoin="round"/>
    <polyline points="-152.0,-67.0 -115.0,-67.0 -110.0,-62.0 -110.0,223.5 -105.0,228.5 227.1,228.5" fill="none" stroke="#BD8663" stroke-width="1.5" stroke-linejoin="round"/>
    <polyline points="-152.0,-50.0 35.0,-50.0 40.0,-45.0 40.0,283.5 45.0,288.5 677.1,288.5" fill="none" stroke="#BD8663" stroke-width="1.5" stroke-linejoin="round"/>
    <polyline points="358.0,245.5 396.8,245.5 400.0,248.7 400.0,250.3 403.2,253.5 437.1,253.5" fill="none" stroke="#845DAF" stroke-width="3" stroke-linejoin="round"/>
    <polyline points="358.0,245.5 396.8,245.5 400.0,248.7 400.0,250.3 403.2,253.5 437.1,253.5" fill="none" stroke="#DED4EA" stroke-width="1" stroke-linejoin="round"/>
    <polyline points="538.4,253.5 563.4,253.5 568.4,248.5 568.4,192.5 573.4,187.5 677.1,187.5" fill="none" stroke="#845DAF" stroke-width="3" stroke-linejoin="round"/>
    <polyline points="538.4,253.5 563.4,253.5 568.4,248.5 568.4,192.5 573.4,187.5 677.1,187.5" fill="none" stroke="#DED4EA" stroke-width="1" stroke-linejoin="round"/>
    <polyline points="538.4,270.5 563.4,270.5 568.4,275.5 568.4,300.5 573.4,305.5 677.1,305.5" fill="none" stroke="#845DAF" stroke-width="3" stroke-linejoin="round"/>
    <polyline points="538.4,270.5 563.4,270.5 568.4,275.5 568.4,300.5 573.4,305.5 677.1,305.5" fill="none" stroke="#DED4EA" stroke-width="1" stroke-linejoin="round"/>
  </g>
  <g id="interface_ports">
    <polygon points="-157.0,-89.0 -152.0,-84.0 -157.0,-79.0" fill="#3366FF"/>
    <text x="-158.0" y="-79.8" font-family="'TGL 0-17_std', 'TGL 0-17', 'Times New Roman', Times, serif" font-size="12"
          fill="#000000" text-anchor="end">Output</text>
    <polygon points="-157.0,-72.0 -152.0,-67.0 -157.0,-62.0" fill="#BD8663"/>
    <text x="-158.0" y="-62.8" font-family="'TGL 0-17_std', 'TGL 0-17', 'Times New Roman', Times, serif" font-size="12"
          fill="#000000" text-anchor="end">ID_READ</text>
    <polygon points="-157.0,-55.0 -152.0,-50.0 -157.0,-45.0" fill="#BD8663"/>
    <text x="-158.0" y="-45.8" font-family="'TGL 0-17_std', 'TGL 0-17', 'Times New Roman', Times, serif" font-size="12"
          fill="#000000" text-anchor="end">ID_WRITE</text>
  </g>
  <g id="instances">
    <g id="fb_logiBUS_QXA" transform="translate(677.1, 75.0)">
      <path d="M 3 0
            L 108.5625 0
            A 3 3 0 0 1 111.5625 3
            L 111.5625 35
            A 3 3 0 0 1 108.5625 38
            L 102.5625 38
            L 102.5625 52
            L 108.5625 52
            A 3 3 0 0 1 111.5625 55
            L 111.5625 120
            A 3 3 0 0 1 108.5625 123
            L 3 123
            A 3 3 0 0 1 0 120
            L 0 55
            A 3 3 0 0 1 3 52
            L 9 52
            L 9 38
            L 3 38
            A 3 3 0 0 1 0 35
            L 0 3
            A 3 3 0 0 1 3 0
            Z"
            fill="#FFFFFF" stroke="#A0A0A0" stroke-width="1.5"
            stroke-linejoin="round" filter="url(#dropShadow)"/>
      <!-- Name Section -->
      <path d="M 14.375 37.0
            L 28.375 37.0
            A 1 1 0 0 1 29.375 38.0
            L 29.375 41.0
            L 27.875 41.0
            L 27.875 43.666666666666664
            L 29.375 43.666666666666664
            L 29.375 52.0
            A 1 1 0 0 1 28.375 53.0
            L 14.375 53.0
            A 1 1 0 0 1 13.375 52.0
            L 13.375 43.666666666666664
            L 14.875 43.666666666666664
            L 14.875 41.0
            L 13.375 41.0
            L 13.375 38.0
            A 1 1 0 0 1 14.375 37.0
            Z"
            fill="#87CEEB" stroke="#1565C0" stroke-width="1"/>
      <text x="21.375" y="49.0"
            font-family="'TGL 0-17_std', 'TGL 0-17', 'Times New Roman', Times, serif" font-size="10" font-weight="bold"
            fill="#000000" text-anchor="middle">C</text>
      <text x="31.375" y="49.0"
            font-family="'TGL 0-16_std', 'TGL 0-16', 'Times New Roman', Times, serif" font-size="12"
            fill="#000000">logiBUS_QXA</text>
      <polygon points="0,5.5 5,10.5 0,15.5" fill="#63B31F"/>
      <text x="6" y="14.7" font-family="'TGL 0-17_std', 'TGL 0-17', 'Times New Roman', Times, serif" font-size="12"
            fill="#000000">INIT</text>
      <polygon points="106.5625,5.5 111.5625,10.5 106.5625,15.5" fill="#63B31F"/>
      <text x="105.5625" y="14.7" font-family="'TGL 0-17_std', 'TGL 0-17', 'Times New Roman', Times, serif" font-size="12"
            fill="#000000" text-anchor="end">INITO</text>
      <polygon points="106.5625,22.5 111.5625,27.5 106.5625,32.5" fill="#63B31F"/>
      <text x="105.5625" y="31.7" font-family="'TGL 0-17_std', 'TGL 0-17', 'Times New Roman', Times, serif" font-size="12"
            fill="#000000" text-anchor="end">CNF</text>
      <polygon points="0,56.5 5,61.5 0,66.5" fill="#A3B08F"/>
      <text x="6" y="65.7" font-family="'TGL 0-17_std', 'TGL 0-17', 'Times New Roman', Times, serif" font-size="12"
            fill="#000000">QI</text>
      <polygon points="0,73.5 5,78.5 0,83.5" fill="#BD8663"/>
      <text x="6" y="82.7" font-family="'TGL 0-17_std', 'TGL 0-17', 'Times New Roman', Times, serif" font-size="12"
            fill="#000000">PARAMS</text>
      <polygon points="0,90.5 5,95.5 0,100.5" fill="#3366FF"/>
      <text x="6" y="99.7" font-family="'TGL 0-17_std', 'TGL 0-17', 'Times New Roman', Times, serif" font-size="12"
            fill="#000000">Output</text>
      <polygon points="106.5625,56.5 111.5625,61.5 106.5625,66.5" fill="#A3B08F"/>
      <text x="105.5625" y="65.7" font-family="'TGL 0-17_std', 'TGL 0-17', 'Times New Roman', Times, serif" font-size="12"
            fill="#000000" text-anchor="end">QO</text>
      <polygon points="106.5625,73.5 111.5625,78.5 106.5625,83.5" fill="#BD8663"/>
      <text x="105.5625" y="82.7" font-family="'TGL 0-17_std', 'TGL 0-17', 'Times New Roman', Times, serif" font-size="12"
            fill="#000000" text-anchor="end">STATUS</text>
      <text x="-3" y="65.7" font-family="'TGL 0-17_std', 'TGL 0-17', 'Times New Roman', Times, serif" font-size="12" fill="#000000" text-anchor="end">TRUE</text>
      <path d="M 0 107.5
            L 5.0 107.5
            L 5.0 109.16666666666667
            L 7.5 109.16666666666667
            L 7.5 107.5
            L 10 107.5
            L 10 117.5
            L 7.5 117.5
            L 7.5 115.83333333333333
            L 5.0 115.83333333333333
            L 5.0 117.5
            L 0 117.5
            Z" fill="none" stroke="#845DAF" stroke-width="1"/>
      <text x="13" y="116.7" font-family="'TGL 0-17_std', 'TGL 0-17', 'Times New Roman', Times, serif" font-size="12"
            fill="#000000">OUT</text>
      <!-- Instance Name -->
      <text x="55.78125" y="-5"
            font-family="'TGL 0-17_std', 'TGL 0-17', 'Times New Roman', Times, serif" font-size="12"
            fill="#000000" text-anchor="middle">logiBUS_QXA</text>
    </g>
    <g id="fb_AX_SUBSCRIBE_1" transform="translate(227.1, 150.0)">
      <path d="M 3 0
            L 127.9375 0
            A 3 3 0 0 1 130.9375 3
            L 130.9375 35
            A 3 3 0 0 1 127.9375 38
            L 121.9375 38
            L 121.9375 52
            L 127.9375 52
            A 3 3 0 0 1 130.9375 55
            L 130.9375 103
            A 3 3 0 0 1 127.9375 106
            L 3 106
            A 3 3 0 0 1 0 103
            L 0 55
            A 3 3 0 0 1 3 52
            L 9 52
            L 9 38
            L 3 38
            A 3 3 0 0 1 0 35
            L 0 3
            A 3 3 0 0 1 3 0
            Z"
            fill="#FFFFFF" stroke="#A0A0A0" stroke-width="1.5"
            stroke-linejoin="round" filter="url(#dropShadow)"/>
      <!-- Name Section -->
      <path d="M 13.0 37.0
            L 27.0 37.0
            A 1 1 0 0 1 28.0 38.0
            L 28.0 41.0
            L 26.5 41.0
            L 26.5 43.666666666666664
            L 28.0 43.666666666666664
            L 28.0 52.0
            A 1 1 0 0 1 27.0 53.0
            L 13.0 53.0
            A 1 1 0 0 1 12.0 52.0
            L 12.0 43.666666666666664
            L 13.5 43.666666666666664
            L 13.5 41.0
            L 12.0 41.0
            L 12.0 38.0
            A 1 1 0 0 1 13.0 37.0
            Z"
            fill="#87CEEB" stroke="#1565C0" stroke-width="1"/>
      <text x="20.0" y="49.0"
            font-family="'TGL 0-17_std', 'TGL 0-17', 'Times New Roman', Times, serif" font-size="10" font-weight="bold"
            fill="#000000" text-anchor="middle">C</text>
      <text x="30.0" y="49.0"
            font-family="'TGL 0-16_std', 'TGL 0-16', 'Times New Roman', Times, serif" font-size="12"
            fill="#000000">AX_SUBSCRIBE_1</text>
      <polygon points="0,5.5 5,10.5 0,15.5" fill="#63B31F"/>
      <text x="6" y="14.7" font-family="'TGL 0-17_std', 'TGL 0-17', 'Times New Roman', Times, serif" font-size="12"
            fill="#000000">INIT</text>
      <polygon points="0,22.5 5,27.5 0,32.5" fill="#63B31F"/>
      <text x="6" y="31.7" font-family="'TGL 0-17_std', 'TGL 0-17', 'Times New Roman', Times, serif" font-size="12"
            fill="#000000">RSP</text>
      <polygon points="125.9375,5.5 130.9375,10.5 125.9375,15.5" fill="#63B31F"/>
      <text x="124.9375" y="14.7" font-family="'TGL 0-17_std', 'TGL 0-17', 'Times New Roman', Times, serif" font-size="12"
            fill="#000000" text-anchor="end">INITO</text>
      <polygon points="125.9375,22.5 130.9375,27.5 125.9375,32.5" fill="#63B31F"/>
      <text x="124.9375" y="31.7" font-family="'TGL 0-17_std', 'TGL 0-17', 'Times New Roman', Times, serif" font-size="12"
            fill="#000000" text-anchor="end">IND</text>
      <polygon points="0,56.5 5,61.5 0,66.5" fill="#A3B08F"/>
      <text x="6" y="65.7" font-family="'TGL 0-17_std', 'TGL 0-17', 'Times New Roman', Times, serif" font-size="12"
            fill="#000000">QI</text>
      <polygon points="0,73.5 5,78.5 0,83.5" fill="#BD8663"/>
      <text x="6" y="82.7" font-family="'TGL 0-17_std', 'TGL 0-17', 'Times New Roman', Times, serif" font-size="12"
            fill="#000000">ID</text>
      <polygon points="125.9375,56.5 130.9375,61.5 125.9375,66.5" fill="#A3B08F"/>
      <text x="124.9375" y="65.7" font-family="'TGL 0-17_std', 'TGL 0-17', 'Times New Roman', Times, serif" font-size="12"
            fill="#000000" text-anchor="end">QO</text>
      <polygon points="125.9375,73.5 130.9375,78.5 125.9375,83.5" fill="#BD8663"/>
      <text x="124.9375" y="82.7" font-family="'TGL 0-17_std', 'TGL 0-17', 'Times New Roman', Times, serif" font-size="12"
            fill="#000000" text-anchor="end">STATUS</text>
      <text x="-3" y="65.7" font-family="'TGL 0-17_std', 'TGL 0-17', 'Times New Roman', Times, serif" font-size="12" fill="#000000" text-anchor="end">TRUE</text>
      <path d="M 120.9375 90.5
            L 123.4375 90.5
            L 123.4375 92.16666666666667
            L 125.9375 92.16666666666667
            L 125.9375 90.5
            L 130.9375 90.5
            L 130.9375 100.5
            L 125.9375 100.5
            L 125.9375 98.83333333333333
            L 123.4375 98.83333333333333
            L 123.4375 100.5
            L 120.9375 100.5
            Z" fill="#845DAF"/>
      <text x="117.9375" y="99.7" font-family="'TGL 0-17_std', 'TGL 0-17', 'Times New Roman', Times, serif" font-size="12"
            fill="#000000" text-anchor="end">OUT</text>
      <!-- Instance Name -->
      <text x="65.46875" y="-5"
            font-family="'TGL 0-17_std', 'TGL 0-17', 'Times New Roman', Times, serif" font-size="12"
            fill="#000000" text-anchor="middle">AX_SUBSCRIBE_1</text>
    </g>
    <g id="fb_AX_SPLIT_2" transform="translate(437.1, 210.0)">
      <path d="M 3 0
            L 98.3125 0
            A 3 3 0 0 1 101.3125 3
            L 101.3125 18
            A 3 3 0 0 1 98.3125 21
            L 92.3125 21
            L 92.3125 35
            L 98.3125 35
            A 3 3 0 0 1 101.3125 38
            L 101.3125 69
            A 3 3 0 0 1 98.3125 72
            L 3 72
            A 3 3 0 0 1 0 69
            L 0 38
            A 3 3 0 0 1 3 35
            L 9 35
            L 9 21
            L 3 21
            A 3 3 0 0 1 0 18
            L 0 3
            A 3 3 0 0 1 3 0
            Z"
            fill="#FFFFFF" stroke="#A0A0A0" stroke-width="1.5"
            stroke-linejoin="round" filter="url(#dropShadow)"/>
      <!-- Name Section -->
      <path d="M 13.0 20.0
            L 27.0 20.0
            A 1 1 0 0 1 28.0 21.0
            L 28.0 24.0
            L 26.5 24.0
            L 26.5 26.666666666666668
            L 28.0 26.666666666666668
            L 28.0 35.0
            A 1 1 0 0 1 27.0 36.0
            L 13.0 36.0
            A 1 1 0 0 1 12.0 35.0
            L 12.0 26.666666666666668
            L 13.5 26.666666666666668
            L 13.5 24.0
            L 12.0 24.0
            L 12.0 21.0
            A 1 1 0 0 1 13.0 20.0
            Z"
            fill="#87CEEB" stroke="#1565C0" stroke-width="1"/>
      <text x="20.0" y="32.0"
            font-family="'TGL 0-17_std', 'TGL 0-17', 'Times New Roman', Times, serif" font-size="10" font-weight="bold"
            fill="#000000" text-anchor="middle">Si</text>
      <text x="30.0" y="32.0"
            font-family="'TGL 0-16_std', 'TGL 0-16', 'Times New Roman', Times, serif" font-size="12"
            fill="#000000">AX_SPLIT_2</text>



      <path d="M 0 38.5
            L 5.0 38.5
            L 5.0 40.166666666666664
            L 7.5 40.166666666666664
            L 7.5 38.5
            L 10 38.5
            L 10 48.5
            L 7.5 48.5
            L 7.5 46.833333333333336
            L 5.0 46.833333333333336
            L 5.0 48.5
            L 0 48.5
            Z" fill="none" stroke="#845DAF" stroke-width="1"/>
      <text x="13" y="47.7" font-family="'TGL 0-17_std', 'TGL 0-17', 'Times New Roman', Times, serif" font-size="12"
            fill="#000000">IN</text>
      <path d="M 91.3125 38.5
            L 93.8125 38.5
            L 93.8125 40.166666666666664
            L 96.3125 40.166666666666664
            L 96.3125 38.5
            L 101.3125 38.5
            L 101.3125 48.5
            L 96.3125 48.5
            L 96.3125 46.833333333333336
            L 93.8125 46.833333333333336
            L 93.8125 48.5
            L 91.3125 48.5
            Z" fill="#845DAF"/>
      <text x="88.3125" y="47.7" font-family="'TGL 0-17_std', 'TGL 0-17', 'Times New Roman', Times, serif" font-size="12"
            fill="#000000" text-anchor="end">OUT1</text>
      <path d="M 91.3125 55.5
            L 93.8125 55.5
            L 93.8125 57.166666666666664
            L 96.3125 57.166666666666664
            L 96.3125 55.5
            L 101.3125 55.5
            L 101.3125 65.5
            L 96.3125 65.5
            L 96.3125 63.833333333333336
            L 93.8125 63.833333333333336
            L 93.8125 65.5
            L 91.3125 65.5
            Z" fill="#845DAF"/>
      <text x="88.3125" y="64.7" font-family="'TGL 0-17_std', 'TGL 0-17', 'Times New Roman', Times, serif" font-size="12"
            fill="#000000" text-anchor="end">OUT2</text>
      <!-- Instance Name -->
      <text x="50.65625" y="-5"
            font-family="'TGL 0-17_std', 'TGL 0-17', 'Times New Roman', Times, serif" font-size="12"
            fill="#000000" text-anchor="middle">AX_SPLIT_2</text>
    </g>
    <g id="fb_AX_PUBLISH_1" transform="translate(677.1, 210.0)">
      <path d="M 3 0
            L 112.875 0
            A 3 3 0 0 1 115.875 3
            L 115.875 35
            A 3 3 0 0 1 112.875 38
            L 106.875 38
            L 106.875 52
            L 112.875 52
            A 3 3 0 0 1 115.875 55
            L 115.875 103
            A 3 3 0 0 1 112.875 106
            L 3 106
            A 3 3 0 0 1 0 103
            L 0 55
            A 3 3 0 0 1 3 52
            L 9 52
            L 9 38
            L 3 38
            A 3 3 0 0 1 0 35
            L 0 3
            A 3 3 0 0 1 3 0
            Z"
            fill="#FFFFFF" stroke="#A0A0A0" stroke-width="1.5"
            stroke-linejoin="round" filter="url(#dropShadow)"/>
      <!-- Name Section -->
      <path d="M 13.0 37.0
            L 27.0 37.0
            A 1 1 0 0 1 28.0 38.0
            L 28.0 41.0
            L 26.5 41.0
            L 26.5 43.666666666666664
            L 28.0 43.666666666666664
            L 28.0 52.0
            A 1 1 0 0 1 27.0 53.0
            L 13.0 53.0
            A 1 1 0 0 1 12.0 52.0
            L 12.0 43.666666666666664
            L 13.5 43.666666666666664
            L 13.5 41.0
            L 12.0 41.0
            L 12.0 38.0
            A 1 1 0 0 1 13.0 37.0
            Z"
            fill="#87CEEB" stroke="#1565C0" stroke-width="1"/>
      <text x="20.0" y="49.0"
            font-family="'TGL 0-17_std', 'TGL 0-17', 'Times New Roman', Times, serif" font-size="10" font-weight="bold"
            fill="#000000" text-anchor="middle">C</text>
      <text x="30.0" y="49.0"
            font-family="'TGL 0-16_std', 'TGL 0-16', 'Times New Roman', Times, serif" font-size="12"
            fill="#000000">AX_PUBLISH_1</text>
      <polygon points="0,5.5 5,10.5 0,15.5" fill="#63B31F"/>
      <text x="6" y="14.7" font-family="'TGL 0-17_std', 'TGL 0-17', 'Times New Roman', Times, serif" font-size="12"
            fill="#000000">INIT</text>
      <polygon points="110.875,5.5 115.875,10.5 110.875,15.5" fill="#63B31F"/>
      <text x="109.875" y="14.7" font-family="'TGL 0-17_std', 'TGL 0-17', 'Times New Roman', Times, serif" font-size="12"
            fill="#000000" text-anchor="end">INITO</text>
      <polygon points="110.875,22.5 115.875,27.5 110.875,32.5" fill="#63B31F"/>
      <text x="109.875" y="31.7" font-family="'TGL 0-17_std', 'TGL 0-17', 'Times New Roman', Times, serif" font-size="12"
            fill="#000000" text-anchor="end">CNF</text>
      <polygon points="0,56.5 5,61.5 0,66.5" fill="#A3B08F"/>
      <text x="6" y="65.7" font-family="'TGL 0-17_std', 'TGL 0-17', 'Times New Roman', Times, serif" font-size="12"
            fill="#000000">QI</text>
      <polygon points="0,73.5 5,78.5 0,83.5" fill="#BD8663"/>
      <text x="6" y="82.7" font-family="'TGL 0-17_std', 'TGL 0-17', 'Times New Roman', Times, serif" font-size="12"
            fill="#000000">ID</text>
      <polygon points="110.875,56.5 115.875,61.5 110.875,66.5" fill="#A3B08F"/>
      <text x="109.875" y="65.7" font-family="'TGL 0-17_std', 'TGL 0-17', 'Times New Roman', Times, serif" font-size="12"
            fill="#000000" text-anchor="end">QO</text>
      <polygon points="110.875,73.5 115.875,78.5 110.875,83.5" fill="#BD8663"/>
      <text x="109.875" y="82.7" font-family="'TGL 0-17_std', 'TGL 0-17', 'Times New Roman', Times, serif" font-size="12"
            fill="#000000" text-anchor="end">STATUS</text>
      <text x="-3" y="65.7" font-family="'TGL 0-17_std', 'TGL 0-17', 'Times New Roman', Times, serif" font-size="12" fill="#000000" text-anchor="end">TRUE</text>
      <path d="M 0 90.5
            L 5.0 90.5
            L 5.0 92.16666666666667
            L 7.5 92.16666666666667
            L 7.5 90.5
            L 10 90.5
            L 10 100.5
            L 7.5 100.5
            L 7.5 98.83333333333333
            L 5.0 98.83333333333333
            L 5.0 100.5
            L 0 100.5
            Z" fill="none" stroke="#845DAF" stroke-width="1"/>
      <text x="13" y="99.7" font-family="'TGL 0-17_std', 'TGL 0-17', 'Times New Roman', Times, serif" font-size="12"
            fill="#000000">IN</text>
      <!-- Instance Name -->
      <text x="57.9375" y="-5"
            font-family="'TGL 0-17_std', 'TGL 0-17', 'Times New Roman', Times, serif" font-size="12"
            fill="#000000" text-anchor="middle">AX_PUBLISH_1</text>
    </g>
  </g>
</svg>