<?xml version="1.0" encoding="UTF-8"?>
<svg xmlns="http://www.w3.org/2000/svg"
     viewBox="-14.8 -151.0 1173.8 588.0"
     width="1174" height="588">
  <style>
    @font-face {
      font-family: "TGL 0-17_std";
      src: local("TGL 0-17_std");
      font-style: normal;
      font-weight: normal;
    }
    @font-face {
      font-family: "TGL 0-17";
      src: local("TGL 0-17"), local("TGL 0-17 alt");
      font-style: normal;
      font-weight: normal;
    }
    @font-face {
      font-family: "TGL 0-16_std";
      src: local("TGL 0-16_std");
      font-style: normal;
      font-weight: normal;
    }
    @font-face {
      font-family: "TGL 0-16";
      src: local("TGL 0-16");
      font-style: normal;
      font-weight: normal;
    }
  </style>
  <defs>
    <filter id="dropShadow" x="-20%" y="-20%" width="140%" height="140%">
      <feGaussianBlur in="SourceAlpha" stdDeviation="3" result="blur"/>
      <feOffset in="blur" dx="1" dy="1" result="offsetBlur"/>
      <feFlood flood-color="#000000" flood-opacity="0.5" result="shadowColor"/>
      <feComposite in="shadowColor" in2="offsetBlur" operator="in" result="shadow"/>
      <feMerge>
        <feMergeNode in="shadow"/>
        <feMergeNode in="SourceGraphic"/>
      </feMerge>
    </filter>
  </defs>
  <rect x="-14.8" y="-151.0" width="1173.8" height="588.0" fill="white"/>
  <rect x="-7.8" y="-144.0" width="1159.8" height="574.0" fill="none" stroke="#A0A0A0" stroke-width="2"/>
  <rect x="-7.8" y="-144.0" width="1159.8" height="25.0" fill="white" stroke="none"/>
  <line x1="-7.8" y1="-119.5" x2="1152.0" y2="-119.5" stroke="#A0A0A0" stroke-width="1"/>
  <text x="-2.8" y="-127.3" font-family="'TGL 0-17_std', 'TGL 0-17', 'Times New Roman', Times, serif" font-size="12" font-weight="bold" fill="#333333">SystemTick-Heartbeat auf einem VT-Zahlenfeld anzeigen (nur lokal, kein OPC-UA)</text>
  <g id="sidebars">
    <rect x="-7.8" y="-119.0" width="47.8" height="549.0" fill="#EEF5FF" stroke="none"/>
    <line x1="40.0" y1="-119.0" x2="40.0" y2="430.0" stroke="#A0A0A0" stroke-width="0.5"/>
  </g>
  <g id="connections">
    <polyline points="40.0,-84.0 412.0,-84.0 417.0,-79.0 417.0,131.5 422.0,136.5 860.6,136.5" fill="none" stroke="#18519E" stroke-width="1.5" stroke-linejoin="round"/>
    <polyline points="749.1,178.5 785.9,178.5 789.1,175.3 789.1,173.7 792.3,170.5 860.6,170.5" fill="none" stroke="#845DAF" stroke-width="3" stroke-linejoin="round"/>
    <polyline points="749.1,178.5 785.9,178.5 789.1,175.3 789.1,173.7 792.3,170.5 860.6,170.5" fill="none" stroke="#DED4EA" stroke-width="1" stroke-linejoin="round"/>
    <polyline points="287.1,178.5 635.6,178.5" fill="none" stroke="#845DAF" stroke-width="3" stroke-linejoin="round"/>
    <polyline points="287.1,178.5 635.6,178.5" fill="none" stroke="#DED4EA" stroke-width="1" stroke-linejoin="round"/>
  </g>
  <g id="interface_ports">
    <polygon points="35.0,-89.0 40.0,-84.0 35.0,-79.0" fill="#18519E"/>
    <text x="34.0" y="-79.8" font-family="'TGL 0-17_std', 'TGL 0-17', 'Times New Roman', Times, serif" font-size="12"
          fill="#000000" text-anchor="end">u16ObjId</text>
  </g>
  <g id="instances">
    <g id="fb_Q_NumericValue_AUDI" transform="translate(860.6, 75.0)">
      <path d="M 3 0
            L 162.87890625 0
            A 3 3 0 0 1 165.87890625 3
            L 165.87890625 35
            A 3 3 0 0 1 162.87890625 38
            L 156.87890625 38
            L 156.87890625 52
            L 162.87890625 52
            A 3 3 0 0 1 165.87890625 55
            L 165.87890625 103
            A 3 3 0 0 1 162.87890625 106
            L 3 106
            A 3 3 0 0 1 0 103
            L 0 55
            A 3 3 0 0 1 3 52
            L 9 52
            L 9 38
            L 3 38
            A 3 3 0 0 1 0 35
            L 0 3
            A 3 3 0 0 1 3 0
            Z"
            fill="#FFFFFF" stroke="#A0A0A0" stroke-width="1.5"
            stroke-linejoin="round" filter="url(#dropShadow)"/>
      <!-- Name Section -->
      <path d="M 27.3525390625 37.0
            L 41.3525390625 37.0
            A 1 1 0 0 1 42.3525390625 38.0
            L 42.3525390625 41.0
            L 40.8525390625 41.0
            L 40.8525390625 43.666666666666664
            L 42.3525390625 43.666666666666664
            L 42.3525390625 52.0
            A 1 1 0 0 1 41.3525390625 53.0
            L 27.3525390625 53.0
            A 1 1 0 0 1 26.3525390625 52.0
            L 26.3525390625 43.666666666666664
            L 27.8525390625 43.666666666666664
            L 27.8525390625 41.0
            L 26.3525390625 41.0
            L 26.3525390625 38.0
            A 1 1 0 0 1 27.3525390625 37.0
            Z"
            fill="#87CEEB" stroke="#1565C0" stroke-width="1"/>
      <text x="34.3525390625" y="49.0"
            font-family="'TGL 0-17_std', 'TGL 0-17', 'Times New Roman', Times, serif" font-size="10" font-weight="bold"
            fill="#000000" text-anchor="middle">C</text>
      <text x="44.3525390625" y="49.0"
            font-family="'TGL 0-16_std', 'TGL 0-16', 'Times New Roman', Times, serif" font-size="12"
            fill="#000000">Q_NumericValue_…</text>
      <polygon points="0,5.5 5,10.5 0,15.5" fill="#63B31F"/>
      <text x="6" y="14.7" font-family="'TGL 0-17_std', 'TGL 0-17', 'Times New Roman', Times, serif" font-size="12"
            fill="#000000">INIT</text>
      <polygon points="160.87890625,5.5 165.87890625,10.5 160.87890625,15.5" fill="#63B31F"/>
      <text x="159.87890625" y="14.7" font-family="'TGL 0-17_std', 'TGL 0-17', 'Times New Roman', Times, serif" font-size="12"
            fill="#000000" text-anchor="end">INITO</text>
      <polygon points="160.87890625,22.5 165.87890625,27.5 160.87890625,32.5" fill="#63B31F"/>
      <text x="159.87890625" y="31.7" font-family="'TGL 0-17_std', 'TGL 0-17', 'Times New Roman', Times, serif" font-size="12"
            fill="#000000" text-anchor="end">CNF</text>
      <polygon points="0,56.5 5,61.5 0,66.5" fill="#18519E"/>
      <text x="6" y="65.7" font-family="'TGL 0-17_std', 'TGL 0-17', 'Times New Roman', Times, serif" font-size="12"
            fill="#000000">u16ObjId</text>
      <polygon points="160.87890625,56.5 165.87890625,61.5 160.87890625,66.5" fill="#BD8663"/>
      <text x="159.87890625" y="65.7" font-family="'TGL 0-17_std', 'TGL 0-17', 'Times New Roman', Times, serif" font-size="12"
            fill="#000000" text-anchor="end">STATUS</text>
      <polygon points="160.87890625,73.5 165.87890625,78.5 160.87890625,83.5" fill="#18519E"/>
      <text x="159.87890625" y="82.7" font-family="'TGL 0-17_std', 'TGL 0-17', 'Times New Roman', Times, serif" font-size="12"
            fill="#000000" text-anchor="end">s16result</text>

      <path d="M 0 90.5
            L 5.0 90.5
            L 5.0 92.16666666666667
            L 7.5 92.16666666666667
            L 7.5 90.5
            L 10 90.5
            L 10 100.5
            L 7.5 100.5
            L 7.5 98.83333333333333
            L 5.0 98.83333333333333
            L 5.0 100.5
            L 0 100.5
            Z" fill="none" stroke="#845DAF" stroke-width="1"/>
      <text x="13" y="99.7" font-family="'TGL 0-17_std', 'TGL 0-17', 'Times New Roman', Times, serif" font-size="12"
            fill="#000000">u32NewValue</text>
      <path d="M 155.87890625 90.5
            L 158.37890625 90.5
            L 158.37890625 92.16666666666667
            L 160.87890625 92.16666666666667
            L 160.87890625 90.5
            L 165.87890625 90.5
            L 165.87890625 100.5
            L 160.87890625 100.5
            L 160.87890625 98.83333333333333
            L 158.37890625 98.83333333333333
            L 158.37890625 100.5
            L 155.87890625 100.5
            Z" fill="#845DAF"/>
      <text x="152.87890625" y="99.7" font-family="'TGL 0-17_std', 'TGL 0-17', 'Times New Roman', Times, serif" font-size="12"
            fill="#000000" text-anchor="end">u32OldValue</text>
      <!-- Instance Name -->
      <text x="82.939453125" y="-5"
            font-family="'TGL 0-17_std', 'TGL 0-17', 'Times New Roman', Times, serif" font-size="12"
            fill="#000000" text-anchor="middle">Q_NumericValue_AUDI</text>
    </g>
    <g id="fb_ADI_TO_AUDI" transform="translate(635.6, 135.0)">
      <path d="M 3 0
            L 110.51953125 0
            A 3 3 0 0 1 113.51953125 3
            L 113.51953125 18
            A 3 3 0 0 1 110.51953125 21
            L 104.51953125 21
            L 104.51953125 35
            L 110.51953125 35
            A 3 3 0 0 1 113.51953125 38
            L 113.51953125 52
            A 3 3 0 0 1 110.51953125 55
            L 3 55
            A 3 3 0 0 1 0 52
            L 0 38
            A 3 3 0 0 1 3 35
            L 9 35
            L 9 21
            L 3 21
            A 3 3 0 0 1 0 18
            L 0 3
            A 3 3 0 0 1 3 0
            Z"
            fill="#FFFFFF" stroke="#A0A0A0" stroke-width="1.5"
            stroke-linejoin="round" filter="url(#dropShadow)"/>
      <!-- Name Section -->
      <path d="M 17.4296875 20.0
            L 31.4296875 20.0
            A 1 1 0 0 1 32.4296875 21.0
            L 32.4296875 24.0
            L 30.9296875 24.0
            L 30.9296875 26.666666666666668
            L 32.4296875 26.666666666666668
            L 32.4296875 35.0
            A 1 1 0 0 1 31.4296875 36.0
            L 17.4296875 36.0
            A 1 1 0 0 1 16.4296875 35.0
            L 16.4296875 26.666666666666668
            L 17.9296875 26.666666666666668
            L 17.9296875 24.0
            L 16.4296875 24.0
            L 16.4296875 21.0
            A 1 1 0 0 1 17.4296875 20.0
            Z"
            fill="#87CEEB" stroke="#1565C0" stroke-width="1"/>
      <text x="24.4296875" y="32.0"
            font-family="'TGL 0-17_std', 'TGL 0-17', 'Times New Roman', Times, serif" font-size="10" font-weight="bold"
            fill="#000000" text-anchor="middle">C</text>
      <text x="34.4296875" y="32.0"
            font-family="'TGL 0-16_std', 'TGL 0-16', 'Times New Roman', Times, serif" font-size="12"
            fill="#000000">ADI_TO_AUDI</text>



      <path d="M 0 38.5
            L 5.0 38.5
            L 5.0 40.166666666666664
            L 7.5 40.166666666666664
            L 7.5 38.5
            L 10 38.5
            L 10 48.5
            L 7.5 48.5
            L 7.5 46.833333333333336
            L 5.0 46.833333333333336
            L 5.0 48.5
            L 0 48.5
            Z" fill="none" stroke="#845DAF" stroke-width="1"/>
      <text x="13" y="47.7" font-family="'TGL 0-17_std', 'TGL 0-17', 'Times New Roman', Times, serif" font-size="12"
            fill="#000000">ADI_IN</text>
      <path d="M 103.51953125 38.5
            L 106.01953125 38.5
            L 106.01953125 40.166666666666664
            L 108.51953125 40.166666666666664
            L 108.51953125 38.5
            L 113.51953125 38.5
            L 113.51953125 48.5
            L 108.51953125 48.5
            L 108.51953125 46.833333333333336
            L 106.01953125 46.833333333333336
            L 106.01953125 48.5
            L 103.51953125 48.5
            Z" fill="#845DAF"/>
      <text x="100.51953125" y="47.7" font-family="'TGL 0-17_std', 'TGL 0-17', 'Times New Roman', Times, serif" font-size="12"
            fill="#000000" text-anchor="end">AUDI_OUT</text>
      <!-- Instance Name -->
      <text x="56.759765625" y="-5"
            font-family="'TGL 0-17_std', 'TGL 0-17', 'Times New Roman', Times, serif" font-size="12"
            fill="#000000" text-anchor="middle">ADI_TO_AUDI</text>
    </g>
    <g id="fb_System_Tick" transform="translate(185.6, 135.0)">
      <path d="M 3 0
            L 98.525390625 0
            A 3 3 0 0 1 101.525390625 3
            L 101.525390625 18
            A 3 3 0 0 1 98.525390625 21
            L 92.525390625 21
            L 92.525390625 35
            L 98.525390625 35
            A 3 3 0 0 1 101.525390625 38
            L 101.525390625 52
            A 3 3 0 0 1 98.525390625 55
            L 3 55
            A 3 3 0 0 1 0 52
            L 0 38
            A 3 3 0 0 1 3 35
            L 9 35
            L 9 21
            L 3 21
            A 3 3 0 0 1 0 18
            L 0 3
            A 3 3 0 0 1 3 0
            Z"
            fill="#FFFFFF" stroke="#A0A0A0" stroke-width="1.5"
            stroke-linejoin="round" filter="url(#dropShadow)"/>
      <!-- Name Section -->
      <path d="M 13.0 20.0
            L 27.0 20.0
            A 1 1 0 0 1 28.0 21.0
            L 28.0 24.0
            L 26.5 24.0
            L 26.5 26.666666666666668
            L 28.0 26.666666666666668
            L 28.0 35.0
            A 1 1 0 0 1 27.0 36.0
            L 13.0 36.0
            A 1 1 0 0 1 12.0 35.0
            L 12.0 26.666666666666668
            L 13.5 26.666666666666668
            L 13.5 24.0
            L 12.0 24.0
            L 12.0 21.0
            A 1 1 0 0 1 13.0 20.0
            Z"
            fill="#87CEEB" stroke="#1565C0" stroke-width="1"/>
      <path d="M 13.5 27.5 L 18.0 27.5 A 0.5 0.5 0 0 1 18.5 28.0 L 18.5 29.25 L 17.675 29.25 L 17.675 30.416666666666668 L 18.5 30.416666666666668 L 18.5 34.0 A 0.5 0.5 0 0 1 18.0 34.5 L 13.5 34.5 A 0.5 0.5 0 0 1 13.0 34.0 L 13.0 30.416666666666668 L 13.825 30.416666666666668 L 13.825 29.25 L 13.0 29.25 L 13.0 28.0 A 0.5 0.5 0 0 1 13.5 27.5 Z" fill="#1565C0" stroke="none"/>
      <path d="M 22.0 27.5 L 26.5 27.5 A 0.5 0.5 0 0 1 27.0 28.0 L 27.0 29.25 L 26.175 29.25 L 26.175 30.416666666666668 L 27.0 30.416666666666668 L 27.0 34.0 A 0.5 0.5 0 0 1 26.5 34.5 L 22.0 34.5 A 0.5 0.5 0 0 1 21.5 34.0 L 21.5 30.416666666666668 L 22.325 30.416666666666668 L 22.325 29.25 L 21.5 29.25 L 21.5 28.0 A 0.5 0.5 0 0 1 22.0 27.5 Z" fill="#1565C0" stroke="none"/>
      <line x1="18.5" y1="28.34" x2="21.5" y2="28.34"
            stroke="#3DA015" stroke-width="1.2"/>
      <line x1="18.5" y1="32.4" x2="21.5" y2="32.4"
            stroke="#FF0000" stroke-width="1.2"/>
      <text x="30.0" y="32.0"
            font-family="'TGL 0-16_std', 'TGL 0-16', 'Times New Roman', Times, serif" font-size="12"
            fill="#000000">SystemTick</text>



      <path d="M 91.525390625 38.5
            L 94.025390625 38.5
            L 94.025390625 40.166666666666664
            L 96.525390625 40.166666666666664
            L 96.525390625 38.5
            L 101.525390625 38.5
            L 101.525390625 48.5
            L 96.525390625 48.5
            L 96.525390625 46.833333333333336
            L 94.025390625 46.833333333333336
            L 94.025390625 48.5
            L 91.525390625 48.5
            Z" fill="#845DAF"/>
      <text x="88.525390625" y="47.7" font-family="'TGL 0-17_std', 'TGL 0-17', 'Times New Roman', Times, serif" font-size="12"
            fill="#000000" text-anchor="end">ADI_OUT</text>
      <!-- Instance Name -->
      <text x="50.7626953125" y="-5"
            font-family="'TGL 0-17_std', 'TGL 0-17', 'Times New Roman', Times, serif" font-size="12"
            fill="#000000" text-anchor="middle">System_Tick</text>
    </g>
  </g>
</svg>