<?xml version="1.0" encoding="UTF-8"?>
<svg xmlns="http://www.w3.org/2000/svg"
     viewBox="0 0 1650.3125 192.0"
     width="1650.3125" height="192.0">
  <style>
    @font-face {
      font-family: "TGL";
      src: local("TGL 0-17_std"), local("TGL 0-17"), local("TGL 0-17 alt");
      font-style: normal;
      font-weight: normal;
    }
    @font-face {
      font-family: "TGL";
      src: local("TGL 0-16_std"), local("TGL 0-16");
      font-style: italic;
      font-weight: normal;
    }
  </style>
  <defs>
    <filter id="dropShadow" x="-20%" y="-20%" width="140%" height="140%">
      <feGaussianBlur in="SourceAlpha" stdDeviation="3" result="blur"/>
      <feOffset in="blur" dx="1" dy="1" result="offsetBlur"/>
      <feFlood flood-color="#000000" flood-opacity="0.5" result="shadowColor"/>
      <feComposite in="shadowColor" in2="offsetBlur" operator="in" result="shadow"/>
      <feMerge>
        <feMergeNode in="shadow"/>
        <feMergeNode in="SourceGraphic"/>
      </feMerge>
    </filter>
  </defs>
  <g transform="translate(903.1875, 10)">

    <!-- Block Outline -->
    <path d="M 3 0
            L 178.375 0
            A 3 3 0 0 1 181.375 3
            L 181.375 43.0
            A 3 3 0 0 1 178.375 46.0
            L 171.375 46.0
            L 171.375 86.0
            L 178.375 86.0
            A 3 3 0 0 1 181.375 89.0
            L 181.375 169.0
            A 3 3 0 0 1 178.375 172.0
            L 3 172.0
            A 3 3 0 0 1 0 169.0
            L 0 89.0
            A 3 3 0 0 1 3 86.0
            L 10 86.0
            L 10 46.0
            L 3 46.0
            A 3 3 0 0 1 0 43.0
            L 0 3
            A 3 3 0 0 1 3 0
            Z"
          fill="#FFFFFF" stroke="#A0A0A0" stroke-width="1.5"
          stroke-linejoin="round" filter="url(#dropShadow)"/>

    <!-- Event Ports -->

    <polygon points="1.5,11.0 6.5,16.0 1.5,21.0" fill="#63B31F"/>
    <text x="9.5" y="17.0" font-family="TGL, 'Times New Roman', Times, serif" font-size="14"
          fill="#000000" dominant-baseline="middle">INIT</text>

    <polygon points="174.875,11.0 179.875,16.0 174.875,21.0" fill="#63B31F"/>
    <text x="171.875" y="17.0" font-family="TGL, 'Times New Roman', Times, serif" font-size="14"
          fill="#000000" text-anchor="end" dominant-baseline="middle">INITO</text>

    <polygon points="174.875,31.0 179.875,36.0 174.875,41.0" fill="#63B31F"/>
    <text x="171.875" y="37.0" font-family="TGL, 'Times New Roman', Times, serif" font-size="14"
          fill="#000000" text-anchor="end" dominant-baseline="middle">CNF</text>

    <!-- Name Section -->
    <!-- FB Type Icon -->
    <path d="M 21.0 57.0
            L 37.0 57.0
            A 1 1 0 0 1 38.0 58.0
            L 38.0 61.5
            L 36.0 61.5
            L 36.0 64.5
            L 38.0 64.5
            L 38.0 74.0
            A 1 1 0 0 1 37.0 75.0
            L 21.0 75.0
            A 1 1 0 0 1 20.0 74.0
            L 20.0 64.5
            L 22.0 64.5
            L 22.0 61.5
            L 20.0 61.5
            L 20.0 58.0
            A 1 1 0 0 1 21.0 57.0
            Z"
          fill="#87CEEB" stroke="#1565C0" stroke-width="1"/>
    <text x="29.0" y="71.0"
          font-family="TGL, 'Times New Roman', Times, serif" font-size="12" font-weight="bold"
          fill="#000000" text-anchor="middle">C</text>

    <!-- Block Name -->
    <text x="43.0" y="71.0"
          font-family="TGL, 'Times New Roman', Times, serif" font-size="14"
          fill="#000000" font-style="italic">PositionMarkerFSA</text>
    
    <text x="90.6875" y="86.0"
          font-family="TGL, 'Times New Roman', Times, serif" font-size="12"
          fill="#666666" text-anchor="middle">1.1</text>

    <!-- Data Ports -->

    <polygon points="1.5,91.0 6.5,96.0 1.5,101.0" fill="#3366FF"/>
    <text x="9.5" y="97.0" font-family="TGL, 'Times New Roman', Times, serif" font-size="14"
          fill="#000000" dominant-baseline="middle">stObj</text>

    <polygon points="1.5,111.0 6.5,116.0 1.5,121.0" fill="#A3B08F"/>
    <text x="9.5" y="117.0" font-family="TGL, 'Times New Roman', Times, serif" font-size="14"
          fill="#000000" dominant-baseline="middle">xScale</text>

    <polygon points="174.875,91.0 179.875,96.0 174.875,101.0" fill="#BD8663"/>
    <text x="171.875" y="97.0" font-family="TGL, 'Times New Roman', Times, serif" font-size="14"
          fill="#000000" text-anchor="end" dominant-baseline="middle">STATUS</text>

    <polygon points="174.875,111.0 179.875,116.0 174.875,121.0" fill="#18519E"/>
    <text x="171.875" y="117.0" font-family="TGL, 'Times New Roman', Times, serif" font-size="14"
          fill="#000000" text-anchor="end" dominant-baseline="middle">s16result</text>

    <!-- Adapter Ports -->

    <path d="M 1.5 137.0
            L 6.5 137.0
            L 6.5 138.66666666666666
            L 9.0 138.66666666666666
            L 9.0 137.0
            L 11.5 137.0
            L 11.5 147.0
            L 9.0 147.0
            L 9.0 145.33333333333334
            L 6.5 145.33333333333334
            L 6.5 147.0
            L 1.5 147.0
            Z" fill="none" stroke="#845DAF" stroke-width="1"/>
    <text x="14.5" y="143.0" font-family="TGL, 'Times New Roman', Times, serif" font-size="14"
          fill="#000000" dominant-baseline="middle">rPhys</text>

    <path d="M 169.875 137.0
            L 172.375 137.0
            L 172.375 138.66666666666666
            L 174.875 138.66666666666666
            L 174.875 137.0
            L 179.875 137.0
            L 179.875 147.0
            L 174.875 147.0
            L 174.875 145.33333333333334
            L 172.375 145.33333333333334
            L 172.375 147.0
            L 169.875 147.0
            Z" fill="#845DAF"/>
    <text x="166.875" y="143.0" font-family="TGL, 'Times New Roman', Times, serif" font-size="14"
          fill="#000000" text-anchor="end" dominant-baseline="middle">xOver</text>

    <path d="M 169.875 157.0
            L 172.375 157.0
            L 172.375 158.66666666666666
            L 174.875 158.66666666666666
            L 174.875 157.0
            L 179.875 157.0
            L 179.875 167.0
            L 174.875 167.0
            L 174.875 165.33333333333334
            L 172.375 165.33333333333334
            L 172.375 167.0
            L 169.875 167.0
            Z" fill="#845DAF"/>
    <text x="166.875" y="163.0" font-family="TGL, 'Times New Roman', Times, serif" font-size="14"
          fill="#000000" text-anchor="end" dominant-baseline="middle">xUnder</text>

    <!-- Event-Data Association Connectors and Lines -->

    <rect x="-15" y="11.0" width="10" height="10"
          fill="#FFFFFF" stroke="#000000" stroke-width="1"/>

    <rect x="-15" y="91.0" width="10" height="10"
          fill="#FFFFFF" stroke="#000000" stroke-width="1"/>

    <line x1="-10.0" y1="16.0" x2="-10.0" y2="96.0"
          stroke="#000000" stroke-width="1"/>

    <rect x="-15" y="111.0" width="10" height="10"
          fill="#FFFFFF" stroke="#000000" stroke-width="1"/>

    <line x1="-10.0" y1="16.0" x2="-10.0" y2="116.0"
          stroke="#000000" stroke-width="1"/>

    <rect x="186.375" y="31.0" width="10" height="10"
          fill="#FFFFFF" stroke="#000000" stroke-width="1"/>

    <rect x="186.375" y="91.0" width="10" height="10"
          fill="#FFFFFF" stroke="#000000" stroke-width="1"/>

    <line x1="191.375" y1="36.0" x2="191.375" y2="96.0"
          stroke="#000000" stroke-width="1"/>

    <rect x="186.375" y="111.0" width="10" height="10"
          fill="#FFFFFF" stroke="#000000" stroke-width="1"/>

    <line x1="191.375" y1="36.0" x2="191.375" y2="116.0"
          stroke="#000000" stroke-width="1"/>

    <!-- Horizontal Connection Lines -->

    <line x1="0" y1="16.0" x2="-20" y2="16.0"
          stroke="#000000" stroke-width="1"/>

    <line x1="0" y1="96.0" x2="-20" y2="96.0"
          stroke="#000000" stroke-width="1"/>

    <line x1="0" y1="116.0" x2="-20" y2="116.0"
          stroke="#000000" stroke-width="1"/>

    <line x1="181.375" y1="36.0" x2="201.375" y2="36.0"
          stroke="#000000" stroke-width="1"/>

    <line x1="181.375" y1="96.0" x2="201.375" y2="96.0"
          stroke="#000000" stroke-width="1"/>

    <line x1="181.375" y1="116.0" x2="201.375" y2="116.0"
          stroke="#000000" stroke-width="1"/>

    <!-- External Labels -->

    <text x="-25" y="17.0" font-family="TGL, 'Times New Roman', Times, serif" font-size="14"
          fill="#000000" text-anchor="end" dominant-baseline="middle">Service Initialization – <tspan font-family="TGL, 'Times New Roman', Times, serif" font-style="italic" dominant-baseline="middle">Event</tspan></text>

    <text x="206.375" y="17.0" font-family="TGL, 'Times New Roman', Times, serif" font-size="14"
          fill="#000000" dominant-baseline="middle"><tspan font-family="TGL, 'Times New Roman', Times, serif" font-style="italic" dominant-baseline="middle">Event</tspan> – Initialization Confirm</text>

    <text x="206.375" y="37.0" font-family="TGL, 'Times New Roman', Times, serif" font-size="14"
          fill="#000000" dominant-baseline="middle"><tspan font-family="TGL, 'Times New Roman', Times, serif" font-style="italic" dominant-baseline="middle">Event</tspan> – Confirmation of Requested Service</text>

    <text x="-25" y="97.0" font-family="TGL, 'Times New Roman', Times, serif" font-size="14"
          fill="#000000" text-anchor="end" dominant-baseline="middle">Marker object pool properties (child/parent IDs, travel bounds, center offset), snapshotted at INIT – <tspan font-family="TGL, 'Times New Roman', Times, serif" font-style="italic" dominant-baseline="middle">isobus::utils::childposition::PositionMarker_S</tspan></text>

    <text x="-25" y="117.0" font-family="TGL, 'Times New Roman', Times, serif" font-size="14"
          fill="#000000" text-anchor="end" dominant-baseline="middle">FALSE (default) = bypass. TRUE = scale by the DM/SKM factor. Passed straight through to the internal PositionMarkerFS instance. – <tspan font-family="TGL, 'Times New Roman', Times, serif" font-style="italic" dominant-baseline="middle">BOOL</tspan></text>

    <text x="206.375" y="97.0" font-family="TGL, 'Times New Roman', Times, serif" font-size="14"
          fill="#000000" dominant-baseline="middle"><tspan font-family="TGL, 'Times New Roman', Times, serif" font-style="italic" dominant-baseline="middle">STRING</tspan> – Service Status - passthrough from the internal PositionMarkerFS</text>

    <text x="206.375" y="117.0" font-family="TGL, 'Times New Roman', Times, serif" font-size="14"
          fill="#000000" dominant-baseline="middle"><tspan font-family="TGL, 'Times New Roman', Times, serif" font-style="italic" dominant-baseline="middle">INT</tspan> – retval - passthrough from the internal PositionMarkerFS</text>

    <text x="-25" y="143.0" font-family="TGL, 'Times New Roman', Times, serif" font-size="14"
          fill="#000000" text-anchor="end" dominant-baseline="middle">Physical REAL value input – <tspan font-family="TGL, 'Times New Roman', Times, serif" font-style="italic" dominant-baseline="middle">AR</tspan></text>

    <text x="206.375" y="143.0" font-family="TGL, 'Times New Roman', Times, serif" font-size="14"
          fill="#000000" dominant-baseline="middle"><tspan font-family="TGL, 'Times New Roman', Times, serif" font-style="italic" dominant-baseline="middle">AX</tspan> – rValue (after adding stObj.r32Center) exceeded stObj.r32MaxPos and was clamped</text>

    <text x="206.375" y="163.0" font-family="TGL, 'Times New Roman', Times, serif" font-size="14"
          fill="#000000" dominant-baseline="middle"><tspan font-family="TGL, 'Times New Roman', Times, serif" font-style="italic" dominant-baseline="middle">AX</tspan> – rValue (after adding stObj.r32Center) fell below stObj.r32MinPos and was clamped</text>
  </g>
</svg>