<?xml version="1.0" encoding="UTF-8"?>
<svg xmlns="http://www.w3.org/2000/svg"
     viewBox="0 0 610.25 192.0"
     width="610.25" height="192.0">
  <style>
    @font-face {
      font-family: "TGL";
      src: local("TGL 0-17_std"), local("TGL 0-17"), local("TGL 0-17 alt");
      font-style: normal;
      font-weight: normal;
    }
    @font-face {
      font-family: "TGL";
      src: local("TGL 0-16_std"), local("TGL 0-16");
      font-style: italic;
      font-weight: normal;
    }
  </style>
  <defs>
    <filter id="dropShadow" x="-20%" y="-20%" width="140%" height="140%">
      <feGaussianBlur in="SourceAlpha" stdDeviation="3" result="blur"/>
      <feOffset in="blur" dx="1" dy="1" result="offsetBlur"/>
      <feFlood flood-color="#000000" flood-opacity="0.5" result="shadowColor"/>
      <feComposite in="shadowColor" in2="offsetBlur" operator="in" result="shadow"/>
      <feMerge>
        <feMergeNode in="shadow"/>
        <feMergeNode in="SourceGraphic"/>
      </feMerge>
    </filter>
  </defs>
  <g transform="translate(138.5625, 10)">

    <!-- Block Outline -->
    <path d="M 3 0
            L 142.375 0
            A 3 3 0 0 1 145.375 3
            L 145.375 83.0
            A 3 3 0 0 1 142.375 86.0
            L 135.375 86.0
            L 135.375 126.0
            L 142.375 126.0
            A 3 3 0 0 1 145.375 129.0
            L 145.375 169.0
            A 3 3 0 0 1 142.375 172.0
            L 3 172.0
            A 3 3 0 0 1 0 169.0
            L 0 129.0
            A 3 3 0 0 1 3 126.0
            L 10 126.0
            L 10 86.0
            L 3 86.0
            A 3 3 0 0 1 0 83.0
            L 0 3
            A 3 3 0 0 1 3 0
            Z"
          fill="#FFFFFF" stroke="#A0A0A0" stroke-width="1.5"
          stroke-linejoin="round" filter="url(#dropShadow)"/>

    <!-- Event Ports -->

    <polygon points="138.875,11.0 143.875,16.0 138.875,21.0" fill="#63B31F"/>
    <text x="135.875" y="17.0" font-family="TGL, 'Times New Roman', Times, serif" font-size="14"
          fill="#000000" text-anchor="end" dominant-baseline="middle">EO1</text>

    <polygon points="138.875,31.0 143.875,36.0 138.875,41.0" fill="#63B31F"/>
    <text x="135.875" y="37.0" font-family="TGL, 'Times New Roman', Times, serif" font-size="14"
          fill="#000000" text-anchor="end" dominant-baseline="middle">EO2</text>

    <polygon points="138.875,51.0 143.875,56.0 138.875,61.0" fill="#63B31F"/>
    <text x="135.875" y="57.0" font-family="TGL, 'Times New Roman', Times, serif" font-size="14"
          fill="#000000" text-anchor="end" dominant-baseline="middle">EO3</text>

    <polygon points="138.875,71.0 143.875,76.0 138.875,81.0" fill="#63B31F"/>
    <text x="135.875" y="77.0" font-family="TGL, 'Times New Roman', Times, serif" font-size="14"
          fill="#000000" text-anchor="end" dominant-baseline="middle">EO4</text>

    <!-- Name Section -->
    <!-- FB Type Icon -->
    <path d="M 21.0 97.0
            L 37.0 97.0
            A 1 1 0 0 1 38.0 98.0
            L 38.0 101.5
            L 36.0 101.5
            L 36.0 104.5
            L 38.0 104.5
            L 38.0 114.0
            A 1 1 0 0 1 37.0 115.0
            L 21.0 115.0
            A 1 1 0 0 1 20.0 114.0
            L 20.0 104.5
            L 22.0 104.5
            L 22.0 101.5
            L 20.0 101.5
            L 20.0 98.0
            A 1 1 0 0 1 21.0 97.0
            Z"
          fill="#87CEEB" stroke="#1565C0" stroke-width="1"/>
    <text x="29.0" y="111.0"
          font-family="TGL, 'Times New Roman', Times, serif" font-size="12" font-weight="bold"
          fill="#000000" text-anchor="middle">Si</text>

    <!-- Block Name -->
    <text x="43.0" y="111.0"
          font-family="TGL, 'Times New Roman', Times, serif" font-size="14"
          fill="#000000" font-style="italic">AUI_DEMUX_4</text>
    
    <text x="72.6875" y="126.0"
          font-family="TGL, 'Times New Roman', Times, serif" font-size="12"
          fill="#666666" text-anchor="middle">1.0</text>

    <!-- Data Ports -->

    <!-- Adapter Ports -->

    <path d="M 1.5 157.0
            L 6.5 157.0
            L 6.5 158.66666666666666
            L 9.0 158.66666666666666
            L 9.0 157.0
            L 11.5 157.0
            L 11.5 167.0
            L 9.0 167.0
            L 9.0 165.33333333333334
            L 6.5 165.33333333333334
            L 6.5 167.0
            L 1.5 167.0
            Z" fill="none" stroke="#845DAF" stroke-width="1"/>
    <text x="14.5" y="163.0" font-family="TGL, 'Times New Roman', Times, serif" font-size="14"
          fill="#000000" dominant-baseline="middle">K</text>

    <!-- Event-Data Association Connectors and Lines -->

    <!-- Horizontal Connection Lines -->

    <!-- External Labels -->

    <text x="170.375" y="17.0" font-family="TGL, 'Times New Roman', Times, serif" font-size="14"
          fill="#000000" dominant-baseline="middle"><tspan font-family="TGL, 'Times New Roman', Times, serif" font-style="italic" dominant-baseline="middle">Event</tspan> – Output, demultiplexed from EI when K=0</text>

    <text x="170.375" y="37.0" font-family="TGL, 'Times New Roman', Times, serif" font-size="14"
          fill="#000000" dominant-baseline="middle"><tspan font-family="TGL, 'Times New Roman', Times, serif" font-style="italic" dominant-baseline="middle">Event</tspan> – Output, demultiplexed from EI when K=1</text>

    <text x="170.375" y="57.0" font-family="TGL, 'Times New Roman', Times, serif" font-size="14"
          fill="#000000" dominant-baseline="middle"><tspan font-family="TGL, 'Times New Roman', Times, serif" font-style="italic" dominant-baseline="middle">Event</tspan> – Output, demultiplexed from EI when K=2</text>

    <text x="170.375" y="77.0" font-family="TGL, 'Times New Roman', Times, serif" font-size="14"
          fill="#000000" dominant-baseline="middle"><tspan font-family="TGL, 'Times New Roman', Times, serif" font-style="italic" dominant-baseline="middle">Event</tspan> – Output, demultiplexed from EI when K=3</text>

    <text x="-25" y="163.0" font-family="TGL, 'Times New Roman', Times, serif" font-size="14"
          fill="#000000" text-anchor="end" dominant-baseline="middle">Event index – <tspan font-family="TGL, 'Times New Roman', Times, serif" font-style="italic" dominant-baseline="middle">AUI</tspan></text>
  </g>
</svg>