<?xml version="1.0" encoding="UTF-8"?>
<svg xmlns="http://www.w3.org/2000/svg"
     viewBox="0 0 621.52734375 172.0"
     width="621.52734375" height="172.0">
  <style>
    @font-face {
      font-family: "TGL";
      src: local("TGL 0-17_std"), local("TGL 0-17"), local("TGL 0-17 alt");
      font-style: normal;
      font-weight: normal;
    }
    @font-face {
      font-family: "TGL";
      src: local("TGL 0-16_std"), local("TGL 0-16");
      font-style: italic;
      font-weight: normal;
    }
  </style>
  <defs>
    <filter id="dropShadow" x="-20%" y="-20%" width="140%" height="140%">
      <feGaussianBlur in="SourceAlpha" stdDeviation="3" result="blur"/>
      <feOffset in="blur" dx="1" dy="1" result="offsetBlur"/>
      <feFlood flood-color="#000000" flood-opacity="0.5" result="shadowColor"/>
      <feComposite in="shadowColor" in2="offsetBlur" operator="in" result="shadow"/>
      <feMerge>
        <feMergeNode in="shadow"/>
        <feMergeNode in="SourceGraphic"/>
      </feMerge>
    </filter>
  </defs>
  <g transform="translate(204.0048828125, 10)">

    <!-- Block Outline -->
    <path d="M 3 0
            L 123.0244140625 0
            A 3 3 0 0 1 126.0244140625 3
            L 126.0244140625 43.0
            A 3 3 0 0 1 123.0244140625 46.0
            L 116.0244140625 46.0
            L 116.0244140625 86.0
            L 123.0244140625 86.0
            A 3 3 0 0 1 126.0244140625 89.0
            L 126.0244140625 149.0
            A 3 3 0 0 1 123.0244140625 152.0
            L 3 152.0
            A 3 3 0 0 1 0 149.0
            L 0 89.0
            A 3 3 0 0 1 3 86.0
            L 10 86.0
            L 10 46.0
            L 3 46.0
            A 3 3 0 0 1 0 43.0
            L 0 3
            A 3 3 0 0 1 3 0
            Z"
          fill="#FFFFFF" stroke="#A0A0A0" stroke-width="1.5"
          stroke-linejoin="round" filter="url(#dropShadow)"/>

    <!-- Event Ports -->

    <polygon points="1.5,11.0 6.5,16.0 1.5,21.0" fill="#63B31F"/>
    <text x="9.5" y="17.0" font-family="TGL, 'Times New Roman', Times, serif" font-size="14"
          fill="#000000" dominant-baseline="middle">INIT</text>

    <polygon points="119.5244140625,11.0 124.5244140625,16.0 119.5244140625,21.0" fill="#63B31F"/>
    <text x="116.5244140625" y="17.0" font-family="TGL, 'Times New Roman', Times, serif" font-size="14"
          fill="#000000" text-anchor="end" dominant-baseline="middle">INITO</text>

    <polygon points="119.5244140625,31.0 124.5244140625,36.0 119.5244140625,41.0" fill="#63B31F"/>
    <text x="116.5244140625" y="37.0" font-family="TGL, 'Times New Roman', Times, serif" font-size="14"
          fill="#000000" text-anchor="end" dominant-baseline="middle">CNF</text>

    <!-- Name Section -->
    <!-- FB Type Icon -->
    <path d="M 22.35205078125 57.0
            L 38.35205078125 57.0
            A 1 1 0 0 1 39.35205078125 58.0
            L 39.35205078125 61.5
            L 37.35205078125 61.5
            L 37.35205078125 64.5
            L 39.35205078125 64.5
            L 39.35205078125 74.0
            A 1 1 0 0 1 38.35205078125 75.0
            L 22.35205078125 75.0
            A 1 1 0 0 1 21.35205078125 74.0
            L 21.35205078125 64.5
            L 23.35205078125 64.5
            L 23.35205078125 61.5
            L 21.35205078125 61.5
            L 21.35205078125 58.0
            A 1 1 0 0 1 22.35205078125 57.0
            Z"
          fill="#87CEEB" stroke="#1565C0" stroke-width="1"/>
    <text x="30.35205078125" y="71.0"
          font-family="TGL, 'Times New Roman', Times, serif" font-size="12" font-weight="bold"
          fill="#000000" text-anchor="middle">C</text>

    <!-- Block Name -->
    <text x="44.35205078125" y="71.0"
          font-family="TGL, 'Times New Roman', Times, serif" font-size="14"
          fill="#000000" font-style="italic">Q_ESC_AX</text>
    
    <text x="63.01220703125" y="86.0"
          font-family="TGL, 'Times New Roman', Times, serif" font-size="12"
          fill="#666666" text-anchor="middle">1.0</text>

    <!-- Data Ports -->

    <polygon points="119.5244140625,91.0 124.5244140625,96.0 119.5244140625,101.0" fill="#BD8663"/>
    <text x="116.5244140625" y="97.0" font-family="TGL, 'Times New Roman', Times, serif" font-size="14"
          fill="#000000" text-anchor="end" dominant-baseline="middle">STATUS</text>

    <polygon points="119.5244140625,111.0 124.5244140625,116.0 119.5244140625,121.0" fill="#18519E"/>
    <text x="116.5244140625" y="117.0" font-family="TGL, 'Times New Roman', Times, serif" font-size="14"
          fill="#000000" text-anchor="end" dominant-baseline="middle">s16result</text>

    <!-- Adapter Ports -->

    <path d="M 1.5 137.0
            L 6.5 137.0
            L 6.5 138.66666666666666
            L 9.0 138.66666666666666
            L 9.0 137.0
            L 11.5 137.0
            L 11.5 147.0
            L 9.0 147.0
            L 9.0 145.33333333333334
            L 6.5 145.33333333333334
            L 6.5 147.0
            L 1.5 147.0
            Z" fill="none" stroke="#845DAF" stroke-width="1"/>
    <text x="14.5" y="143.0" font-family="TGL, 'Times New Roman', Times, serif" font-size="14"
          fill="#000000" dominant-baseline="middle">xReq</text>

    <!-- Event-Data Association Connectors and Lines -->

    <rect x="131.0244140625" y="31.0" width="10" height="10"
          fill="#FFFFFF" stroke="#000000" stroke-width="1"/>

    <rect x="131.0244140625" y="91.0" width="10" height="10"
          fill="#FFFFFF" stroke="#000000" stroke-width="1"/>

    <line x1="136.0244140625" y1="36.0" x2="136.0244140625" y2="96.0"
          stroke="#000000" stroke-width="1"/>

    <rect x="131.0244140625" y="111.0" width="10" height="10"
          fill="#FFFFFF" stroke="#000000" stroke-width="1"/>

    <line x1="136.0244140625" y1="36.0" x2="136.0244140625" y2="116.0"
          stroke="#000000" stroke-width="1"/>

    <!-- Horizontal Connection Lines -->

    <line x1="126.0244140625" y1="36.0" x2="146.0244140625" y2="36.0"
          stroke="#000000" stroke-width="1"/>

    <line x1="126.0244140625" y1="96.0" x2="146.0244140625" y2="96.0"
          stroke="#000000" stroke-width="1"/>

    <line x1="126.0244140625" y1="116.0" x2="146.0244140625" y2="116.0"
          stroke="#000000" stroke-width="1"/>

    <!-- External Labels -->

    <text x="-25" y="17.0" font-family="TGL, 'Times New Roman', Times, serif" font-size="14"
          fill="#000000" text-anchor="end" dominant-baseline="middle">Service Initialization – <tspan font-family="TGL, 'Times New Roman', Times, serif" font-style="italic" dominant-baseline="middle">Event</tspan></text>

    <text x="151.0244140625" y="17.0" font-family="TGL, 'Times New Roman', Times, serif" font-size="14"
          fill="#000000" dominant-baseline="middle"><tspan font-family="TGL, 'Times New Roman', Times, serif" font-style="italic" dominant-baseline="middle">Event</tspan> – Initialization Confirm</text>

    <text x="151.0244140625" y="37.0" font-family="TGL, 'Times New Roman', Times, serif" font-size="14"
          fill="#000000" dominant-baseline="middle"><tspan font-family="TGL, 'Times New Roman', Times, serif" font-style="italic" dominant-baseline="middle">Event</tspan> – Confirmation of Requested Service</text>

    <text x="151.0244140625" y="97.0" font-family="TGL, 'Times New Roman', Times, serif" font-size="14"
          fill="#000000" dominant-baseline="middle"><tspan font-family="TGL, 'Times New Roman', Times, serif" font-style="italic" dominant-baseline="middle">STRING</tspan> – Service Status</text>

    <text x="151.0244140625" y="117.0" font-family="TGL, 'Times New Roman', Times, serif" font-size="14"
          fill="#000000" dominant-baseline="middle"><tspan font-family="TGL, 'Times New Roman', Times, serif" font-style="italic" dominant-baseline="middle">INT</tspan> – retval see description</text>

    <text x="-25" y="143.0" font-family="TGL, 'Times New Roman', Times, serif" font-size="14"
          fill="#000000" text-anchor="end" dominant-baseline="middle">Esc Command Trigger – <tspan font-family="TGL, 'Times New Roman', Times, serif" font-style="italic" dominant-baseline="middle">AX</tspan></text>
  </g>
</svg>