<?xml version="1.0" encoding="UTF-8"?>
<svg xmlns="http://www.w3.org/2000/svg"
     viewBox="0 0 1122.30078125 112.0"
     width="1122.30078125" height="112.0">
  <style>
    @font-face {
      font-family: "TGL";
      src: local("TGL 0-17_std"), local("TGL 0-17"), local("TGL 0-17 alt"), url("../../../../_static/fonts/TGL-0-17_std.ttf") format("truetype");
      font-style: normal;
      font-weight: normal;
    }
    @font-face {
      font-family: "TGL";
      src: local("TGL 0-16_std"), local("TGL 0-16"), url("../../../../_static/fonts/TGL-0-16_std.ttf") format("truetype");
      font-style: italic;
      font-weight: normal;
    }
  </style>
  <defs>
    <filter id="dropShadow" x="-20%" y="-20%" width="140%" height="140%">
      <feGaussianBlur in="SourceAlpha" stdDeviation="3" result="blur"/>
      <feOffset in="blur" dx="1" dy="1" result="offsetBlur"/>
      <feFlood flood-color="#000000" flood-opacity="0.5" result="shadowColor"/>
      <feComposite in="shadowColor" in2="offsetBlur" operator="in" result="shadow"/>
      <feMerge>
        <feMergeNode in="shadow"/>
        <feMergeNode in="SourceGraphic"/>
      </feMerge>
    </filter>
  </defs>
  <g transform="translate(435.75, 10)">

    <!-- Block Outline -->
    <path d="M 3 0
            L 217.23828125 0
            A 3 3 0 0 1 220.23828125 3
            L 220.23828125 23.0
            A 3 3 0 0 1 217.23828125 26.0
            L 210.23828125 26.0
            L 210.23828125 66.0
            L 217.23828125 66.0
            A 3 3 0 0 1 220.23828125 69.0
            L 220.23828125 89.0
            A 3 3 0 0 1 217.23828125 92.0
            L 3 92.0
            A 3 3 0 0 1 0 89.0
            L 0 69.0
            A 3 3 0 0 1 3 66.0
            L 10 66.0
            L 10 26.0
            L 3 26.0
            A 3 3 0 0 1 0 23.0
            L 0 3
            A 3 3 0 0 1 3 0
            Z"
          fill="#FFFFFF" stroke="#A0A0A0" stroke-width="1.5"
          stroke-linejoin="round" filter="url(#dropShadow)"/>

    <!-- Event Ports -->

    <polygon points="1.5,11.0 6.5,16.0 1.5,21.0" fill="#63B31F"/>
    <text x="9.5" y="17.0" font-family="TGL, 'Times New Roman', Times, serif" font-size="14"
          fill="#000000" dominant-baseline="middle">REQ</text>

    <polygon points="213.73828125,11.0 218.73828125,16.0 213.73828125,21.0" fill="#63B31F"/>
    <text x="210.73828125" y="17.0" font-family="TGL, 'Times New Roman', Times, serif" font-size="14"
          fill="#000000" text-anchor="end" dominant-baseline="middle">CNF</text>

    <!-- Name Section -->
    <!-- FB Type Icon -->
    <path d="M 21.0 37.0
            L 37.0 37.0
            A 1 1 0 0 1 38.0 38.0
            L 38.0 41.5
            L 36.0 41.5
            L 36.0 44.5
            L 38.0 44.5
            L 38.0 54.0
            A 1 1 0 0 1 37.0 55.0
            L 21.0 55.0
            A 1 1 0 0 1 20.0 54.0
            L 20.0 44.5
            L 22.0 44.5
            L 22.0 41.5
            L 20.0 41.5
            L 20.0 38.0
            A 1 1 0 0 1 21.0 37.0
            Z"
          fill="#87CEEB" stroke="#1565C0" stroke-width="1"/>
    <path d="M 22.5 46.5 L 27.0 46.5 A 0.5 0.5 0 0 1 27.5 47.0 L 27.5 48.25 L 26.675 48.25 L 26.675 49.416666666666664 L 27.5 49.416666666666664 L 27.5 53.0 A 0.5 0.5 0 0 1 27.0 53.5 L 22.5 53.5 A 0.5 0.5 0 0 1 22.0 53.0 L 22.0 49.416666666666664 L 22.825 49.416666666666664 L 22.825 48.25 L 22.0 48.25 L 22.0 47.0 A 0.5 0.5 0 0 1 22.5 46.5 Z" fill="#1565C0" stroke="none"/>
    <path d="M 31.0 46.5 L 35.5 46.5 A 0.5 0.5 0 0 1 36.0 47.0 L 36.0 48.25 L 35.175 48.25 L 35.175 49.416666666666664 L 36.0 49.416666666666664 L 36.0 53.0 A 0.5 0.5 0 0 1 35.5 53.5 L 31.0 53.5 A 0.5 0.5 0 0 1 30.5 53.0 L 30.5 49.416666666666664 L 31.325 49.416666666666664 L 31.325 48.25 L 30.5 48.25 L 30.5 47.0 A 0.5 0.5 0 0 1 31.0 46.5 Z" fill="#1565C0" stroke="none"/>
    <line x1="27.5" y1="47.34" x2="30.5" y2="47.34"
          stroke="#3DA015" stroke-width="1.2"/>
    <line x1="27.5" y1="51.4" x2="30.5" y2="51.4"
          stroke="#FF0000" stroke-width="1.2"/>

    <!-- Block Name -->
    <text x="43.0" y="51.0"
          font-family="TGL, 'Times New Roman', Times, serif" font-size="14"
          fill="#000000" font-style="italic">F_AI_RAW_TO_PERCENT</text>
    
    <text x="110.119140625" y="66.0"
          font-family="TGL, 'Times New Roman', Times, serif" font-size="12"
          fill="#666666" text-anchor="middle">1.0</text>

    <!-- Data Ports -->

    <polygon points="1.5,71.0 6.5,76.0 1.5,81.0" fill="#82A3A9"/>
    <text x="9.5" y="77.0" font-family="TGL, 'Times New Roman', Times, serif" font-size="14"
          fill="#000000" dominant-baseline="middle">IN</text>

    <polygon points="213.73828125,71.0 218.73828125,76.0 213.73828125,81.0" fill="#DBB418"/>
    <text x="210.73828125" y="77.0" font-family="TGL, 'Times New Roman', Times, serif" font-size="14"
          fill="#000000" text-anchor="end" dominant-baseline="middle">OUT</text>


    <!-- Event-Data Association Connectors and Lines -->

    <!-- Horizontal Connection Lines -->

    <!-- External Labels -->

    <text x="-25" y="17.0" font-family="TGL, 'Times New Roman', Times, serif" font-size="14"
          fill="#000000" text-anchor="end" dominant-baseline="middle">Normal Execution Request – <tspan font-family="TGL, 'Times New Roman', Times, serif" font-style="italic" dominant-baseline="middle">Event</tspan></text>

    <text x="245.23828125" y="17.0" font-family="TGL, 'Times New Roman', Times, serif" font-size="14"
          fill="#000000" dominant-baseline="middle"><tspan font-family="TGL, 'Times New Roman', Times, serif" font-style="italic" dominant-baseline="middle">Event</tspan> – Execution Confirmation</text>

    <text x="-25" y="77.0" font-family="TGL, 'Times New Roman', Times, serif" font-size="14"
          fill="#000000" text-anchor="end" dominant-baseline="middle">Analog-Rohwert 0-4095 (12 bit, logiBUS_AI_ID/_IDA.IN) – <tspan font-family="TGL, 'Times New Roman', Times, serif" font-style="italic" dominant-baseline="middle">DWORD</tspan></text>

    <text x="245.23828125" y="77.0" font-family="TGL, 'Times New Roman', Times, serif" font-size="14"
          fill="#000000" dominant-baseline="middle"><tspan font-family="TGL, 'Times New Roman', Times, serif" font-style="italic" dominant-baseline="middle">REAL</tspan> – Prozent 0.0-100.0, linear raw/4095*100, keine physikalische Einheit</text>
  </g>
</svg>