<?xml version="1.0" encoding="UTF-8"?>
<svg xmlns="http://www.w3.org/2000/svg"
     viewBox="0 0 939.5625 152.0"
     width="939.5625" height="152.0">
  <style>
    @font-face {
      font-family: "TGL";
      src: local("TGL 0-17_std"), local("TGL 0-17"), local("TGL 0-17 alt"), url("../../../../../../_static/fonts/TGL-0-17_std.ttf") format("truetype");
      font-style: normal;
      font-weight: normal;
    }
    @font-face {
      font-family: "TGL";
      src: local("TGL 0-16_std"), local("TGL 0-16"), url("../../../../../../_static/fonts/TGL-0-16_std.ttf") format("truetype");
      font-style: italic;
      font-weight: normal;
    }
  </style>
  <defs>
    <filter id="dropShadow" x="-20%" y="-20%" width="140%" height="140%">
      <feGaussianBlur in="SourceAlpha" stdDeviation="3" result="blur"/>
      <feOffset in="blur" dx="1" dy="1" result="offsetBlur"/>
      <feFlood flood-color="#000000" flood-opacity="0.5" result="shadowColor"/>
      <feComposite in="shadowColor" in2="offsetBlur" operator="in" result="shadow"/>
      <feMerge>
        <feMergeNode in="shadow"/>
        <feMergeNode in="SourceGraphic"/>
      </feMerge>
    </filter>
  </defs>
  <g transform="translate(394.25, 10)">

    <!-- Block Outline -->
    <path d="M 3 0
            L 148.0625 0
            A 3 3 0 0 1 151.0625 3
            L 151.0625 43.0
            A 3 3 0 0 1 148.0625 46.0
            L 141.0625 46.0
            L 141.0625 86.0
            L 148.0625 86.0
            A 3 3 0 0 1 151.0625 89.0
            L 151.0625 129.0
            A 3 3 0 0 1 148.0625 132.0
            L 3 132.0
            A 3 3 0 0 1 0 129.0
            L 0 89.0
            A 3 3 0 0 1 3 86.0
            L 10 86.0
            L 10 46.0
            L 3 46.0
            A 3 3 0 0 1 0 43.0
            L 0 3
            A 3 3 0 0 1 3 0
            Z"
          fill="#FFFFFF" stroke="#A0A0A0" stroke-width="1.5"
          stroke-linejoin="round" filter="url(#dropShadow)"/>

    <!-- Event Ports -->

    <polygon points="1.5,11.0 6.5,16.0 1.5,21.0" fill="#63B31F"/>
    <text x="9.5" y="17.0" font-family="TGL, 'Times New Roman', Times, serif" font-size="14"
          fill="#000000" dominant-baseline="middle">EO_UP</text>

    <polygon points="1.5,31.0 6.5,36.0 1.5,41.0" fill="#63B31F"/>
    <text x="9.5" y="37.0" font-family="TGL, 'Times New Roman', Times, serif" font-size="14"
          fill="#000000" dominant-baseline="middle">EO_DOWN</text>

    <polygon points="144.5625,11.0 149.5625,16.0 144.5625,21.0" fill="#63B31F"/>
    <text x="141.5625" y="17.0" font-family="TGL, 'Times New Roman', Times, serif" font-size="14"
          fill="#000000" text-anchor="end" dominant-baseline="middle">EI_UP</text>

    <polygon points="144.5625,31.0 149.5625,36.0 144.5625,41.0" fill="#63B31F"/>
    <text x="141.5625" y="37.0" font-family="TGL, 'Times New Roman', Times, serif" font-size="14"
          fill="#000000" text-anchor="end" dominant-baseline="middle">EI_DOWN</text>

    <!-- Name Section -->
    <!-- FB Type Icon -->
    <path d="M 49.375 57.0
            L 65.375 57.0
            A 1 1 0 0 1 66.375 58.0
            L 66.375 61.5
            L 64.375 61.5
            L 64.375 64.5
            L 66.375 64.5
            L 66.375 74.0
            A 1 1 0 0 1 65.375 75.0
            L 49.375 75.0
            A 1 1 0 0 1 48.375 74.0
            L 48.375 64.5
            L 50.375 64.5
            L 50.375 61.5
            L 48.375 61.5
            L 48.375 58.0
            A 1 1 0 0 1 49.375 57.0
            Z"
          fill="#87CEEB" stroke="#1565C0" stroke-width="1"/>
    <text x="57.375" y="71.0"
          font-family="TGL, 'Times New Roman', Times, serif" font-size="12" font-weight="bold"
          fill="#000000" text-anchor="middle">S</text>

    <!-- Block Name -->
    <text x="71.375" y="71.0"
          font-family="TGL, 'Times New Roman', Times, serif" font-size="14"
          fill="#000000" font-style="italic">A2X2</text>
    
    <text x="75.53125" y="86.0"
          font-family="TGL, 'Times New Roman', Times, serif" font-size="12"
          fill="#666666" text-anchor="middle">1.0</text>

    <!-- Data Ports -->

    <polygon points="1.5,91.0 6.5,96.0 1.5,101.0" fill="#A3B08F"/>
    <text x="9.5" y="97.0" font-family="TGL, 'Times New Roman', Times, serif" font-size="14"
          fill="#000000" dominant-baseline="middle">DO_UP</text>

    <polygon points="1.5,111.0 6.5,116.0 1.5,121.0" fill="#A3B08F"/>
    <text x="9.5" y="117.0" font-family="TGL, 'Times New Roman', Times, serif" font-size="14"
          fill="#000000" dominant-baseline="middle">DO_DOWN</text>

    <polygon points="144.5625,91.0 149.5625,96.0 144.5625,101.0" fill="#A3B08F"/>
    <text x="141.5625" y="97.0" font-family="TGL, 'Times New Roman', Times, serif" font-size="14"
          fill="#000000" text-anchor="end" dominant-baseline="middle">DI_UP</text>

    <polygon points="144.5625,111.0 149.5625,116.0 144.5625,121.0" fill="#A3B08F"/>
    <text x="141.5625" y="117.0" font-family="TGL, 'Times New Roman', Times, serif" font-size="14"
          fill="#000000" text-anchor="end" dominant-baseline="middle">DI_DOWN</text>


    <!-- Event-Data Association Connectors and Lines -->

    <rect x="-15" y="11.0" width="10" height="10"
          fill="#FFFFFF" stroke="#000000" stroke-width="1"/>

    <rect x="-15" y="91.0" width="10" height="10"
          fill="#FFFFFF" stroke="#000000" stroke-width="1"/>

    <line x1="-10.0" y1="16.0" x2="-10.0" y2="96.0"
          stroke="#000000" stroke-width="1"/>

    <rect x="-29" y="31.0" width="10" height="10"
          fill="#FFFFFF" stroke="#000000" stroke-width="1"/>

    <rect x="-29" y="111.0" width="10" height="10"
          fill="#FFFFFF" stroke="#000000" stroke-width="1"/>

    <line x1="-24.0" y1="36.0" x2="-24.0" y2="116.0"
          stroke="#000000" stroke-width="1"/>

    <rect x="156.0625" y="11.0" width="10" height="10"
          fill="#FFFFFF" stroke="#000000" stroke-width="1"/>

    <rect x="156.0625" y="91.0" width="10" height="10"
          fill="#FFFFFF" stroke="#000000" stroke-width="1"/>

    <line x1="161.0625" y1="16.0" x2="161.0625" y2="96.0"
          stroke="#000000" stroke-width="1"/>

    <rect x="170.0625" y="31.0" width="10" height="10"
          fill="#FFFFFF" stroke="#000000" stroke-width="1"/>

    <rect x="170.0625" y="111.0" width="10" height="10"
          fill="#FFFFFF" stroke="#000000" stroke-width="1"/>

    <line x1="175.0625" y1="36.0" x2="175.0625" y2="116.0"
          stroke="#000000" stroke-width="1"/>

    <!-- Horizontal Connection Lines -->

    <line x1="0" y1="16.0" x2="-20" y2="16.0"
          stroke="#000000" stroke-width="1"/>

    <line x1="0" y1="36.0" x2="-34" y2="36.0"
          stroke="#000000" stroke-width="1"/>

    <line x1="0" y1="96.0" x2="-20" y2="96.0"
          stroke="#000000" stroke-width="1"/>

    <line x1="0" y1="116.0" x2="-34" y2="116.0"
          stroke="#000000" stroke-width="1"/>

    <line x1="151.0625" y1="16.0" x2="171.0625" y2="16.0"
          stroke="#000000" stroke-width="1"/>

    <line x1="151.0625" y1="36.0" x2="185.0625" y2="36.0"
          stroke="#000000" stroke-width="1"/>

    <line x1="151.0625" y1="96.0" x2="171.0625" y2="96.0"
          stroke="#000000" stroke-width="1"/>

    <line x1="151.0625" y1="116.0" x2="185.0625" y2="116.0"
          stroke="#000000" stroke-width="1"/>

    <!-- External Labels -->

    <text x="-39" y="17.0" font-family="TGL, 'Times New Roman', Times, serif" font-size="14"
          fill="#000000" text-anchor="end" dominant-baseline="middle">UP Indication (or Request) – <tspan font-family="TGL, 'Times New Roman', Times, serif" font-style="italic" dominant-baseline="middle">Event</tspan></text>

    <text x="-39" y="37.0" font-family="TGL, 'Times New Roman', Times, serif" font-size="14"
          fill="#000000" text-anchor="end" dominant-baseline="middle">DOWN Indication (or Request) – <tspan font-family="TGL, 'Times New Roman', Times, serif" font-style="italic" dominant-baseline="middle">Event</tspan></text>

    <text x="190.0625" y="17.0" font-family="TGL, 'Times New Roman', Times, serif" font-size="14"
          fill="#000000" dominant-baseline="middle"><tspan font-family="TGL, 'Times New Roman', Times, serif" font-style="italic" dominant-baseline="middle">Event</tspan> – UP Request (or Indication)</text>

    <text x="190.0625" y="37.0" font-family="TGL, 'Times New Roman', Times, serif" font-size="14"
          fill="#000000" dominant-baseline="middle"><tspan font-family="TGL, 'Times New Roman', Times, serif" font-style="italic" dominant-baseline="middle">Event</tspan> – DOWN Request (or Indication)</text>

    <text x="-39" y="97.0" font-family="TGL, 'Times New Roman', Times, serif" font-size="14"
          fill="#000000" text-anchor="end" dominant-baseline="middle">TRUE = forward, up, right, clockwise – <tspan font-family="TGL, 'Times New Roman', Times, serif" font-style="italic" dominant-baseline="middle">BOOL</tspan></text>

    <text x="-39" y="117.0" font-family="TGL, 'Times New Roman', Times, serif" font-size="14"
          fill="#000000" text-anchor="end" dominant-baseline="middle">TRUE = backward, down, left, counter-clockwise – <tspan font-family="TGL, 'Times New Roman', Times, serif" font-style="italic" dominant-baseline="middle">BOOL</tspan></text>

    <text x="190.0625" y="97.0" font-family="TGL, 'Times New Roman', Times, serif" font-size="14"
          fill="#000000" dominant-baseline="middle"><tspan font-family="TGL, 'Times New Roman', Times, serif" font-style="italic" dominant-baseline="middle">BOOL</tspan> – TRUE = forward, up, right, clockwise</text>

    <text x="190.0625" y="117.0" font-family="TGL, 'Times New Roman', Times, serif" font-size="14"
          fill="#000000" dominant-baseline="middle"><tspan font-family="TGL, 'Times New Roman', Times, serif" font-style="italic" dominant-baseline="middle">BOOL</tspan> – TRUE = backward, down, left, counter-clockwise</text>
  </g>
</svg>